<svg id="Layer_1" data-name="Layer 1" xmlns="http://www.w3.org/2000/svg" xmlns:xlink="http://www.w3.org/1999/xlink" viewBox="0 0 672.9 558.75"><defs><linearGradient id="linear-gradient" x1="264.99" y1="415.93" x2="310.76" y2="415.93" gradientUnits="userSpaceOnUse"><stop offset="0" stop-color="#e5c6d6"/><stop offset="0.42" stop-color="#ead4d0"/><stop offset="1" stop-color="#f0e9cb"/></linearGradient><linearGradient id="linear-gradient-2" x1="322.24" y1="420.58" x2="345.39" y2="420.58" xlink:href="#linear-gradient"/><linearGradient id="linear-gradient-3" x1="364.84" y1="209.02" x2="326.13" y2="292.89" gradientUnits="userSpaceOnUse"><stop offset="0" stop-color="#010101" stop-opacity="0"/><stop offset="0.95" stop-color="#010101"/></linearGradient><linearGradient id="linear-gradient-4" x1="349.07" y1="192.88" x2="369.49" y2="192.88" xlink:href="#linear-gradient"/><linearGradient id="linear-gradient-5" x1="322.41" y1="187.9" x2="342.49" y2="187.9" xlink:href="#linear-gradient"/><linearGradient id="linear-gradient-6" x1="327.33" y1="250.45" x2="217.74" y2="18.57" xlink:href="#linear-gradient-3"/><linearGradient id="linear-gradient-7" x1="380.28" y1="218.58" x2="425.52" y2="218.58" xlink:href="#linear-gradient"/><linearGradient id="linear-gradient-8" x1="367.43" y1="185.73" x2="377.49" y2="230.45" xlink:href="#linear-gradient-3"/><linearGradient id="linear-gradient-9" x1="372.36" y1="190.43" x2="410.93" y2="147" xlink:href="#linear-gradient-3"/><linearGradient id="linear-gradient-10" x1="346.67" y1="185.48" x2="358.31" y2="185.48" xlink:href="#linear-gradient"/><linearGradient id="linear-gradient-11" x1="291.89" y1="463.28" x2="243.64" y2="530.6" xlink:href="#linear-gradient-3"/><linearGradient id="linear-gradient-12" x1="342.46" y1="450.96" x2="320.02" y2="566.15" xlink:href="#linear-gradient-3"/><linearGradient id="linear-gradient-13" x1="333.32" y1="314.85" x2="-223.75" y2="351.88" xlink:href="#linear-gradient-3"/><linearGradient id="linear-gradient-14" x1="397.82" y1="120.82" x2="426.06" y2="120.82" gradientUnits="userSpaceOnUse"><stop offset="0" stop-color="#fff" stop-opacity="0"/><stop offset="0.95" stop-color="#fff"/></linearGradient><linearGradient id="linear-gradient-15" x1="163.79" y1="184" x2="194.34" y2="184" gradientTransform="translate(349.6 -109.78) rotate(27.42)" xlink:href="#linear-gradient-14"/><linearGradient id="linear-gradient-16" x1="-52.88" y1="376.58" x2="-22.34" y2="376.58" gradientTransform="translate(773.09 -1.58) rotate(59.75)" xlink:href="#linear-gradient-14"/></defs><title>marketing 1</title><path d="M243.46,563.36c55.49,10.27,112.64,7.25,168.77,1.1,73.34-8,151.63-24.23,201.6-77.61C642,456.71,658.21,417.5,669,377.94c11.91-43.83,17.51-92-1.34-133.4-24.16-53.11-81.72-82.3-122.35-124.62-16.63-17.32-30.56-37.06-47.81-53.78C452.79,22.87,385.93,3,324.34,14.61,252.17,28.24,194.6,80,141.47,129.94,108.76,160.68,76,191.75,49.55,227.88c-16.84,23-31.09,48.32-38,75.84C-21.18,432.87,130.24,542.43,243.46,563.36Z" transform="translate(-6.98 -11.33)" fill="#0c343d" opacity="0.24" style="isolation:isolate"/><rect x="113.4" y="201.57" width="146.3" height="205.63" rx="15.76" fill="#0c343d" opacity="0.24" style="isolation:isolate"/><rect x="289.18" y="87.06" width="243.47" height="342.21" rx="26.23" fill="#0c343d" opacity="0.24" style="isolation:isolate"/><rect x="301.52" y="76.97" width="243.47" height="342.21" rx="26.23" fill="#fff"/><rect x="411.1" y="99.41" width="108.46" height="163.06" rx="13.61" fill="#0c343d" opacity="0.3" style="isolation:isolate"/><rect x="326.88" y="125.59" width="78.24" height="163.06" rx="11.56" fill="#0c343d" opacity="0.16" style="isolation:isolate"/><rect x="421.87" y="292.39" width="78.24" height="66.84" rx="7.4" fill="#0c343d" opacity="0.16" style="isolation:isolate"/><rect x="123.12" y="188.86" width="146.3" height="205.63" rx="15.76" fill="#fff"/><rect x="140.62" y="210.11" width="78.24" height="163.06" rx="11.56" fill="#0c343d" opacity="0.25" style="isolation:isolate"/><path d="M222.65,485.72c-3.76.09-9,2.53-7.28,5.85a5.5,5.5,0,0,0,2.16,1.92c12,7.13,25.81,10.42,39.51,13a443.92,443.92,0,0,0,121.18,5.6c2.78-.25,5.72-.6,7.92-2.3,12.08-9.34-27.52-13.07-32.23-14.25-9.84-2.45-18.93-6.07-29.09-7.21C291.2,484.52,256.42,484.81,222.65,485.72Z" transform="translate(-6.98 -11.33)" fill="#0c343d" opacity="0.24" style="isolation:isolate"/><polygon points="422.41 172.05 476.83 181.31 440.37 234.32 391.84 220.86 422.41 172.05" fill="#fff"/><path d="M277.45,432.92c-5,16.15-11.18,32.19-12.37,49.06a14.39,14.39,0,0,0,.29,5c1.62,5.55,8.38,7.45,14.08,8.44,2.73.48,6.29.57,7.46-1.95s-1.27-5.28-3.69-6.72-5.35-2.95-5.75-5.73c-.26-1.77.64-3.47,1.47-5.06,3.76-7.19,6.5-14.85,9.24-22.49l13.91-38.83a159.7,159.7,0,0,0,6.31-20.4c2.27-10.59,2.39-21.51,2.35-32.34,0-5.84-.12-11.91-2.66-17.18-1.66-3.44-4.75-6.7-8.45-7.91-5.32-1.75-5.5-.18-6,4.42-1.23,10.28-1.43,20.67-2.8,31A370.57,370.57,0,0,1,277.45,432.92Z" transform="translate(-6.98 -11.33)" fill="url(#linear-gradient)"/><path d="M323.92,342.75q2.55,74.64-1.64,149.3a7.07,7.07,0,0,0,.55,4c1,1.79,3.36,2.29,5.42,2.47a43.69,43.69,0,0,0,12.29-.66,5.05,5.05,0,0,0,3.38-1.72c1.1-1.63,0-3.95-1.59-5.07s-3.63-1.47-5.44-2.23a4.38,4.38,0,0,1-2.17-1.62c-.71-1.17-.42-2.66-.1-4,9.91-42.19,14.28-86.17,7.5-129-.82-5.16-3.14-11.54-8.37-11.74-4.21-.16-7.15,4-9.26,7.63" transform="translate(-6.98 -11.33)" fill="url(#linear-gradient-2)"/><path d="M354.12,212.37c3.15,2.15,6.49,4.29,10.27,4.8.22-3.27-1.41-6.34-2.31-9.5s-.77-7.14,1.95-9c3.12-2.1,7.43.1,9.82,3s3.91,6.68,5.33,10.29l4.51,11.45a12.89,12.89,0,0,1,1.19,4.72,8.83,8.83,0,0,1-2.23,5.36c-4.51,5.42-12.7,6.58-19.43,4.47S351,231.1,345.94,226.16c-3.77-3.71-13.92-13.48-9.46-19.4C341.3,200.37,350.05,209.6,354.12,212.37Z" transform="translate(-6.98 -11.33)" fill="#0c343d"/><path d="M354.12,212.37c3.15,2.15,6.49,4.29,10.27,4.8.22-3.27-1.41-6.34-2.31-9.5s-.77-7.14,1.95-9c3.12-2.1,7.43.1,9.82,3s3.91,6.68,5.33,10.29l4.51,11.45a12.89,12.89,0,0,1,1.19,4.72,8.83,8.83,0,0,1-2.23,5.36c-4.51,5.42-12.7,6.58-19.43,4.47S351,231.1,345.94,226.16c-3.77-3.71-13.92-13.48-9.46-19.4C341.3,200.37,350.05,209.6,354.12,212.37Z" transform="translate(-6.98 -11.33)" fill="url(#linear-gradient-3)"/><path d="M349.23,187.26a10.18,10.18,0,0,0,5.74,7.05,17.12,17.12,0,0,1,2.14,1,8.36,8.36,0,0,1,2.89,3.88,14.57,14.57,0,0,0,2.4,4.27,4,4,0,0,0,4.45,1.15,4.1,4.1,0,0,0,1.61-1.64,9.38,9.38,0,0,0,.75-6.66,30.37,30.37,0,0,0-2.46-6.38c-1.11-2.36-2.22-4.81-4.1-6.62C358.8,179.56,347.61,179.67,349.23,187.26Z" transform="translate(-6.98 -11.33)" fill="url(#linear-gradient-4)"/><path d="M336,161.52a4.91,4.91,0,0,0-2.56-5,11.68,11.68,0,0,0-5.81-1.25,24.19,24.19,0,0,0-8,1.06c-5,1.67-9,5.59-12.09,9.86s-5.55,9-8.69,13.26c-5.67,7.69-14,13.85-23.52,14.91-2,.22-4.17.33-5.48,1.8a6.46,6.46,0,0,0-1.3,3.23,25.5,25.5,0,0,0,.19,11.91,14,14,0,0,0,7.4,9c.73.32,1.58.65,1.86,1.39a2.87,2.87,0,0,1-.16,1.84,14.45,14.45,0,0,0-.28,6.44,14.74,14.74,0,0,0,23.95,8.67,13.88,13.88,0,0,0,23.59-4.37c1.06-3,1.08-6.2,1.87-9.25,2-7.54,8.22-13,12.91-19.24a44.15,44.15,0,0,0,8.28-18.07,68.19,68.19,0,0,0,1-11.52c.07-3.61,0-7.41-1.77-10.54s-4.93-5-8-6.68c-3.6-1.9-7.62-3.63-11.64-2.95" transform="translate(-6.98 -11.33)" fill="#606161"/><path d="M322.76,192.17A47.38,47.38,0,0,0,323,201a18.58,18.58,0,0,0,2.19,7.4,8.43,8.43,0,0,0,6.16,4.27,6.92,6.92,0,0,0,5.52-2c1.42-1.44-7.17-13.85-5.36-12.93,11,5.61,10.81-18.78,11-21.49a15.35,15.35,0,0,0-1.81-8.75,8.57,8.57,0,0,0-7.47-4.34,8.9,8.9,0,0,0-6.54,4,20.28,20.28,0,0,0-2.88,7.35,57.45,57.45,0,0,0-1.25,15.64" transform="translate(-6.98 -11.33)" fill="url(#linear-gradient-5)"/><path d="M319.19,204.2c-1.95-2-5.27-2.12-7.76-.87a12.91,12.91,0,0,0-5.46,6.13,24.44,24.44,0,0,0-2.12,6.56,49.35,49.35,0,0,0-.25,10.87c.35,7.18.64,14.37.43,21.55-.09,3.28-.29,6.63.6,9.79,1.47,5.24,5.87,9.37,11,11.31a28.29,28.29,0,0,0,16.08.71,6.24,6.24,0,0,0,2.26-.84,6.17,6.17,0,0,0,1.45-1.56,31.45,31.45,0,0,0,3-5.12c1.95-4.22,2.93-8.81,3.9-13.36,2.12-9.93,4.24-20,4.23-30.12,0-3.16-.25-6.43-1.76-9.2a14.19,14.19,0,0,0-7.84-6.27,31.39,31.39,0,0,0-10.11-1.48,80.48,80.48,0,0,0-13.61.95" transform="translate(-6.98 -11.33)" fill="#0c343d"/><path d="M343.84,242.43s-24.12-3.22-25.52-5.19S313.55,265,313.55,265s-7.57,1.4-7.86-4.21-.17-48.93,4.13-54.19.92,14.36,20.56,16.61,14.3,13.18,14.3,13.18Z" transform="translate(-6.98 -11.33)" fill="url(#linear-gradient-6)"/><path d="M338.14,236.21c10.75,2.34,43.44.36,47.4-5,1.13-1.51,1.79-4.54,1.91-6.42s.21-4-.65-5.44c-1.06-1.82-3-1.74-4.68-1.54a215.54,215.54,0,0,1-30.9,1.12c-6.88-.17-14-.57-20.28-4.43-3.43-2.11-6.53-5.17-9.92-7.41s-7.83-3.86-11.2-.53c-2.71,2.66-2.68,6.72-1,10.37,3.95,8.4,13,13.46,19.5,16.58C332.57,235.59,333.73,235.26,338.14,236.21Z" transform="translate(-6.98 -11.33)" fill="#0c343d"/><path d="M381,228.41c8.49,3,18.12.09,26.7-2.66a11.11,11.11,0,0,0,4.51-2.33c1.21-1.19,1.88-2.82,3-4.09,2.44-2.75,6.53-3.32,9.44-5.56a2.29,2.29,0,0,0,.79-.9,2.1,2.1,0,0,0,0-1.4,6,6,0,0,0-4.76-3.83,14.42,14.42,0,0,0-6.34.58A50.1,50.1,0,0,0,400,214.57c-3.85,2.5-7.47,5.59-11.9,6.8-2.65.73-5.86,1-7.28,3.33C380.79,224.7,379.52,227.9,381,228.41Z" transform="translate(-6.98 -11.33)" fill="url(#linear-gradient-7)"/><path d="M352.07,350.66c-.2,2.63-.48,5.38-2.11,7.45s-4.3,3-6.81,3.83c-9,3-18.22,6-27.74,6.81A44.47,44.47,0,0,1,295,366a32.72,32.72,0,0,1-6.86-3.7,11.19,11.19,0,0,1-3.62-3.75,14.07,14.07,0,0,1-1.24-5.74c-1.75-29.4,3.71-60.45,21.12-83.92,1.24-1.67,2.51-3.27,3.87-4.86,9.64,1.63,19.84,1.43,29.61,2.31A182.58,182.58,0,0,1,352.07,350.66Z" transform="translate(-6.98 -11.33)" fill="#0c343d"/><path d="M335.31,165.77a18.3,18.3,0,0,1-20.91,18.1,1.31,1.31,0,0,1-1.32-1.08c-1.9-5.47.68-11.55,4.3-16.06a19.93,19.93,0,0,1,6.86-5.8,22,22,0,0,1,6.85-1.7c1.4-.15,3.88-.28,4.62,1.25C336.32,161.74,335.31,164.35,335.31,165.77Z" transform="translate(-6.98 -11.33)" fill="#606161"/><path d="M396.86,189.71c-.2,1.16-1.35,2.11-3.11,2.83-5.26,2.31-16.06,2.79-22.27,2.35-8.29-.56-20.64,3.07-25,2.79a14.62,14.62,0,0,1-1.51-.16c-3.19-.48-4.19-1.87-3-4.58,1.39-3.11,24.83-18.81,27.22-23.15s11.63-9.69,11.63-9.69S397.7,184.93,396.86,189.71Z" transform="translate(-6.98 -11.33)" fill="#fff"/><path d="M393.79,192.5a0,0,0,0,1,0,0c-5.26,2.31-16.06,2.79-22.27,2.35-8.29-.56-20.64,3.07-25,2.79a14.62,14.62,0,0,1-1.51-.16c-.36-.76.6-1.59,1.43-2a70,70,0,0,1,23.55-5.9c1.36-.08,3.07-.52,3.19-1.83,0-.92-.68-2.07.08-2.59.12,0,2.91,2.23,3.27,2.39a5.29,5.29,0,0,0,2.75.68c2.71.2,4.46,1.43,7.05,2.15,2.31.64,4.9,0,7.1,1a1,1,0,0,1,.51.39A.91.91,0,0,1,393.79,192.5Z" transform="translate(-6.98 -11.33)" fill="url(#linear-gradient-8)"/><path d="M393.59,191.66a12.18,12.18,0,0,1-3.94.68c-6.1,0-12.23-4.78-14.82-12a18.1,18.1,0,0,1,.83-15,11.89,11.89,0,0,1,6.5-5.73c7.21-2.55,15.62,2.51,18.81,11.35S400.85,189.07,393.59,191.66Z" transform="translate(-6.98 -11.33)" fill="#0c343d"/><path d="M389.65,192.34c-6.1,0-12.23-4.78-14.82-12a18.1,18.1,0,0,1,.83-15c6,.28,12,5.06,14.59,12.2A18.76,18.76,0,0,1,389.65,192.34Z" transform="translate(-6.98 -11.33)" fill="url(#linear-gradient-9)"/><path d="M354.84,180.44a8.23,8.23,0,0,0-2.31.34c-2.36.74-4,2.86-5.16,5.08a5.78,5.78,0,0,0-.67,1.92,2.27,2.27,0,0,0,2.17,2.74,6.09,6.09,0,0,0,1.9-.2,11.7,11.7,0,0,0,5.25-2.5,6.45,6.45,0,0,0,2.27-5.2,2.89,2.89,0,0,0-.38-1.28C357.28,180.32,355.88,180.41,354.84,180.44Z" transform="translate(-6.98 -11.33)" fill="url(#linear-gradient-10)"/><path d="M273,460.93a5.15,5.15,0,0,0-2.56.08c-1.57.59-2.26,2.4-2.77,4l-8,25.55a4,4,0,0,0-.13,3,3.88,3.88,0,0,0,1.65,1.42,52.36,52.36,0,0,0,23.73,6.53c1.46,0,3.12-.06,4.07-1.17a4.41,4.41,0,0,0,.85-2.75,14.22,14.22,0,0,0-1.52-7c-1.19-2.36-3-4.35-4.33-6.65a17.75,17.75,0,0,1-.9-15.24c1.13-2.85,1.14-3.54-1.77-5.06A27.15,27.15,0,0,0,273,460.93Z" transform="translate(-6.98 -11.33)" fill="#0c343d"/><path d="M326.06,466.11a4.94,4.94,0,0,0-2.49.58c-1.43.88-1.75,2.78-1.94,4.46l-2.91,26.63a4,4,0,0,0,.46,3,3.8,3.8,0,0,0,1.89,1.07,52.51,52.51,0,0,0,24.55,1.78c1.45-.25,3.05-.67,3.77-1.94a4.44,4.44,0,0,0,.3-2.86,14.35,14.35,0,0,0-2.86-6.59c-1.64-2.08-3.82-3.67-5.55-5.67a17.78,17.78,0,0,1-3.86-14.77c.55-3,.44-3.7-2.72-4.62A27.1,27.1,0,0,0,326.06,466.11Z" transform="translate(-6.98 -11.33)" fill="#0c343d"/><path d="M273,460.93a5.15,5.15,0,0,0-2.56.08c-1.57.59-2.26,2.4-2.77,4l-8,25.55a4,4,0,0,0-.13,3,3.88,3.88,0,0,0,1.65,1.42,52.36,52.36,0,0,0,23.73,6.53c1.46,0,3.12-.06,4.07-1.17a4.41,4.41,0,0,0,.85-2.75,14.22,14.22,0,0,0-1.52-7c-1.19-2.36-3-4.35-4.33-6.65a17.75,17.75,0,0,1-.9-15.24c1.13-2.85,1.14-3.54-1.77-5.06A27.15,27.15,0,0,0,273,460.93Z" transform="translate(-6.98 -11.33)" fill="url(#linear-gradient-11)"/><path d="M326.06,466.11a4.94,4.94,0,0,0-2.49.58c-1.43.88-1.75,2.78-1.94,4.46l-2.91,26.63a4,4,0,0,0,.46,3,3.8,3.8,0,0,0,1.89,1.07,52.51,52.51,0,0,0,24.55,1.78c1.45-.25,3.05-.67,3.77-1.94a4.44,4.44,0,0,0,.3-2.86,14.35,14.35,0,0,0-2.86-6.59c-1.64-2.08-3.82-3.67-5.55-5.67a17.78,17.78,0,0,1-3.86-14.77c.55-3,.44-3.7-2.72-4.62A27.1,27.1,0,0,0,326.06,466.11Z" transform="translate(-6.98 -11.33)" fill="url(#linear-gradient-12)"/><path d="M307,283.2c-4.22,9.64-6.41,20.12-7.53,30.56-1.71,16.46-.8,33-1.51,49.53a3.12,3.12,0,0,1-.6,2,2.48,2.48,0,0,1-1.67.67,3.52,3.52,0,0,1-.68.08,32.72,32.72,0,0,1-6.86-3.7,11.19,11.19,0,0,1-3.62-3.75,14.07,14.07,0,0,1-1.24-5.74c-1.75-29.4,3.71-60.45,21.12-83.92,3.59-1.19,7.77-2.19,8.93,1C314.25,272.6,308.12,280.57,307,283.2Z" transform="translate(-6.98 -11.33)" fill="url(#linear-gradient-13)"/><polygon points="397.82 132.85 416.73 104.08 426.06 112.93 404.88 137.55 397.82 132.85" fill="url(#linear-gradient-14)"/><polygon points="404.8 139.5 436.02 123.74 440.96 136.13 409.45 147.13 404.8 139.5" fill="url(#linear-gradient-15)"/><polygon points="410.89 148.41 445.7 151.79 443.24 164.9 410.73 157.34 410.89 148.41" fill="url(#linear-gradient-16)"/></svg>