<?xml version="1.0" encoding="UTF-8" standalone="no"?>
<svg
   xmlns:dc="http://purl.org/dc/elements/1.1/"
   xmlns:cc="http://creativecommons.org/ns#"
   xmlns:rdf="http://www.w3.org/1999/02/22-rdf-syntax-ns#"
   xmlns:svg="http://www.w3.org/2000/svg"
   xmlns="http://www.w3.org/2000/svg"
   xmlns:xlink="http://www.w3.org/1999/xlink"
   xmlns:sodipodi="http://sodipodi.sourceforge.net/DTD/sodipodi-0.dtd"
   xmlns:inkscape="http://www.inkscape.org/namespaces/inkscape"
   id="Layer_1"
   data-name="Layer 1"
   viewBox="0 0 446.16 597"
   version="1.1"
   sodipodi:docname="app.svg"
   inkscape:version="0.92.4 (f8dce91, 2019-08-02)">
  <metadata
     id="metadata181">
    <rdf:RDF>
      <cc:Work
         rdf:about="">
        <dc:format>image/svg+xml</dc:format>
        <dc:type
           rdf:resource="http://purl.org/dc/dcmitype/StillImage" />
      </cc:Work>
    </rdf:RDF>
  </metadata>
  <sodipodi:namedview
     pagecolor="#ffffff"
     bordercolor="#666666"
     borderopacity="1"
     objecttolerance="10"
     gridtolerance="10"
     guidetolerance="10"
     inkscape:pageopacity="0"
     inkscape:pageshadow="2"
     inkscape:window-width="1920"
     inkscape:window-height="1025"
     id="namedview179"
     showgrid="false"
     inkscape:zoom="1.3902848"
     inkscape:cx="223.08"
     inkscape:cy="298.5"
     inkscape:window-x="0"
     inkscape:window-y="27"
     inkscape:window-maximized="1"
     inkscape:current-layer="Layer_1" />
  <defs
     id="defs78">
    <linearGradient
       id="linear-gradient"
       x1="231.64"
       y1="565.98"
       x2="634.69"
       y2="565.98"
       gradientUnits="userSpaceOnUse">
      <stop
         offset="0"
         stop-color="#183866"
         id="stop2" />
      <stop
         offset="1"
         stop-color="#1a7fc1"
         id="stop4" />
    </linearGradient>
    <linearGradient
       id="linear-gradient-2"
       x1="358.29"
       y1="31.45"
       x2="391.52"
       y2="31.45"
       gradientUnits="userSpaceOnUse">
      <stop
         offset="0"
         id="stop7" />
      <stop
         offset="0.08"
         stop-opacity="0.81"
         id="stop9" />
      <stop
         offset="1"
         stop-opacity="0"
         id="stop11" />
    </linearGradient>
    <linearGradient
       id="linear-gradient-3"
       x1="243.43"
       y1="657.71"
       x2="239.65"
       y2="-733.69"
       gradientUnits="userSpaceOnUse">
      <stop
         offset="0"
         id="stop14" />
      <stop
         offset="0.14"
         stop-opacity="0.49"
         id="stop16" />
      <stop
         offset="1"
         stop-opacity="0"
         id="stop18" />
    </linearGradient>
    <linearGradient
       id="linear-gradient-4"
       x1="353.61"
       y1="19.52"
       x2="377.77"
       y2="34.07"
       gradientUnits="userSpaceOnUse">
      <stop
         offset="0"
         stop-color="#ecc4d7"
         id="stop21" />
      <stop
         offset="0.83"
         stop-color="#f2eac9"
         id="stop23" />
    </linearGradient>
    <linearGradient
       id="linear-gradient-5"
       x1="350.92"
       y1="42.48"
       x2="373.33"
       y2="42.48"
       xlink:href="#linear-gradient-4" />
    <linearGradient
       id="linear-gradient-6"
       x1="334.34"
       y1="90.8"
       x2="394.08"
       y2="70.52"
       xlink:href="#linear-gradient-2" />
    <linearGradient
       id="linear-gradient-7"
       x1="480.82"
       y1="118.27"
       x2="499.3"
       y2="118.27"
       xlink:href="#linear-gradient-4" />
    <linearGradient
       id="linear-gradient-8"
       x1="358.09"
       y1="300.15"
       x2="357.73"
       y2="371.61"
       gradientUnits="userSpaceOnUse">
      <stop
         offset="0"
         id="stop29" />
      <stop
         offset="0.17"
         stop-opacity="0.73"
         id="stop31" />
      <stop
         offset="0.29"
         stop-opacity="0.36"
         id="stop33" />
      <stop
         offset="1"
         stop-opacity="0"
         id="stop35" />
    </linearGradient>
    <linearGradient
       id="linear-gradient-9"
       x1="509.96"
       y1="304.83"
       x2="505.95"
       y2="366.81"
       xlink:href="#linear-gradient-3" />
    <linearGradient
       id="linear-gradient-10"
       x1="244.52"
       y1="322.83"
       x2="244.74"
       y2="335.57"
       xlink:href="#linear-gradient-8" />
    <linearGradient
       id="linear-gradient-11"
       x1="150.47"
       y1="304.46"
       x2="170.52"
       y2="374.1"
       xlink:href="#linear-gradient-8" />
    <linearGradient
       id="linear-gradient-12"
       x1="522.14"
       y1="312.05"
       x2="517.4"
       y2="365.64"
       gradientTransform="translate(1041.72 660.41) rotate(-180)"
       xlink:href="#linear-gradient-8" />
    <linearGradient
       id="linear-gradient-13"
       x1="241.66"
       y1="434.35"
       x2="244.99"
       y2="481.65"
       xlink:href="#linear-gradient-8" />
    <linearGradient
       id="linear-gradient-14"
       x1="214.17"
       y1="392.37"
       x2="194.95"
       y2="537.98"
       xlink:href="#linear-gradient-8" />
    <linearGradient
       id="linear-gradient-15"
       x1="284.7"
       y1="401.68"
       x2="265.48"
       y2="547.29"
       xlink:href="#linear-gradient-8" />
    <linearGradient
       id="linear-gradient-16"
       x1="366.12"
       y1="418.93"
       x2="409.36"
       y2="473.25"
       gradientUnits="userSpaceOnUse">
      <stop
         offset="0"
         id="stop45" />
      <stop
         offset="0.17"
         stop-opacity="0.73"
         id="stop47" />
      <stop
         offset="0.26"
         stop-opacity="0.55"
         id="stop49" />
      <stop
         offset="1"
         stop-opacity="0"
         id="stop51" />
    </linearGradient>
    <linearGradient
       id="linear-gradient-17"
       x1="459.59"
       y1="412.11"
       x2="458.48"
       y2="483.8"
       xlink:href="#linear-gradient-8" />
    <linearGradient
       id="linear-gradient-18"
       x1="327.32"
       y1="28.48"
       x2="337.23"
       y2="28.48"
       xlink:href="#linear-gradient-4" />
    <linearGradient
       id="linear-gradient-19"
       x1="307.63"
       y1="51.81"
       x2="443.93"
       y2="26.94"
       gradientUnits="userSpaceOnUse">
      <stop
         offset="0.01"
         stop-color="#fff"
         id="stop56" />
      <stop
         offset="0.07"
         stop-color="#fff"
         stop-opacity="0.87"
         id="stop58" />
      <stop
         offset="0.17"
         stop-color="#fff"
         stop-opacity="0.67"
         id="stop60" />
      <stop
         offset="0.27"
         stop-color="#fff"
         stop-opacity="0.49"
         id="stop62" />
      <stop
         offset="0.37"
         stop-color="#fff"
         stop-opacity="0.34"
         id="stop64" />
      <stop
         offset="0.48"
         stop-color="#fff"
         stop-opacity="0.21"
         id="stop66" />
      <stop
         offset="0.59"
         stop-color="#fff"
         stop-opacity="0.12"
         id="stop68" />
      <stop
         offset="0.7"
         stop-color="#fff"
         stop-opacity="0.05"
         id="stop70" />
      <stop
         offset="0.83"
         stop-color="#fff"
         stop-opacity="0.01"
         id="stop72" />
      <stop
         offset="0.99"
         stop-color="#fff"
         stop-opacity="0"
         id="stop74" />
    </linearGradient>
    <linearGradient
       id="linear-gradient-20"
       x1="355.49"
       y1="33.67"
       x2="331.59"
       y2="61.45"
       xlink:href="#linear-gradient-2" />
  </defs>
  <title
     id="title80">38. Fitness Apps</title>
  <path
     d="M344,46.71c-15.92,14.18-27.37,32.78-43.09,47.18-18.84,17.25-42.81,27.62-64.39,41.3S194.42,168,189.64,193.06c-8.42,44.2,33.35,80.32,50.76,121.81,26.85,64-4.49,145,33.91,202.83,31.29,47.08,94.95,57.62,151.31,62,44.67,3.5,97.41,2.31,123.79-33.91,24.7-33.92,13.34-81.3,22.83-122.17,7.87-33.88,30.61-65.15,27.49-99.79-5.11-56.69-74.5-87.12-90.05-141.88-12.22-43,11.57-92.56-8.77-132.39C473-5.16,381.9,12.93,344,46.71Z"
     transform="translate(-188.53 0)"
     fill="#46699d"
     opacity="0.18"
     id="path82" />
  <path
     d="M271.36,548.35c-3.39,5-.62,13.85,5.41,13.6l-45.13,25.93c9,7.76,22,8.36,33.91,8.53Q449.32,599.1,633,589.5c5-7.24-1.83-17.14-9.65-21.18s-17.28-5.78-23-12.48c-3.27-3.85-4.89-9-8.42-12.58C585.83,537,576,536.8,567.29,537c-56.83,1.45-113.66,3.09-170.49,4.62C370.25,542.36,289,522.33,271.36,548.35Z"
     transform="translate(-188.53 0)"
     opacity="0.19"
     fill="url(#linear-gradient)"
     id="path84" />
  <path
     d="M412.63,87.83S436.22,66,447.92,63.08s46.71,49.64,46.71,49.64l-5.39,3.93L448.7,88.22S404.93,137.85,382,121.73,412.63,87.83,412.63,87.83Z"
     transform="translate(-188.53 0)"
     fill="#25233a"
     id="path86" />
  <path
     d="M367.91,7.79S374.82,3.84,376.8,5s9,53.1,9,53.1L352.54,45.29Z"
     transform="translate(-188.53 0)"
     fill="#46699d"
     id="path88" />
  <path
     d="M367.91,7.79S374.82,3.84,376.8,5s9,53.1,9,53.1L352.54,45.29Z"
     transform="translate(-188.53 0)"
     fill="url(#linear-gradient-2)"
     id="path90" />
  <rect
     x="109.37"
     y="125.02"
     width="266.39"
     height="429.89"
     rx="24.47"
     fill="#46699d"
     id="rect92" />
  <rect
     x="109.37"
     y="125.02"
     width="266.39"
     height="429.89"
     rx="24.47"
     fill="url(#linear-gradient-3)"
     id="rect94" />
  <path
     d="M551.54,161.37V505.84a21.44,21.44,0,0,1-.59,5A22.11,22.11,0,0,1,529.41,528H332.78a22.13,22.13,0,0,1-22.13-22.13V161.37a22.13,22.13,0,0,1,22.13-22.13H529.41A22.13,22.13,0,0,1,551.54,161.37Z"
     transform="translate(-188.53 0)"
     fill="#46699d"
     id="path96" />
  <path
     d="M551.54,161.37V505.84a21.44,21.44,0,0,1-.59,5L377.4,525.58a22.14,22.14,0,0,1-23.92-20.19L324.4,162.16a22.12,22.12,0,0,1,15.22-22.92H529.41A22.13,22.13,0,0,1,551.54,161.37Z"
     transform="translate(-188.53 0)"
     fill="#46699d"
     id="path98" />
  <rect
     x="143.91"
     y="283.99"
     width="201.45"
     height="89.78"
     rx="18.8"
     fill="#fff"
     id="rect100" />
  <rect
     x="500.64"
     y="301"
     width="15.48"
     height="56.5"
     rx="6.69"
     transform="translate(828.23 658.5) rotate(180)"
     fill="#46699d"
     id="rect102" />
  <rect
     x="138.93"
     y="401.29"
     width="201.45"
     height="89.78"
     rx="18.8"
     fill="#fff"
     id="rect104" />
  <path
     d="M364.74,4.49s3.89,2.88,4.3,6c.65,5,2.87,5.16,5.53,6.59,1.72.92-.59,4.45-.59,4.45s3.76,6.1,2.59,10.52-9.2,10.38-23.44,7.14S336,26.74,339.42,19.85,349.79,4.08,364.74,4.49Z"
     transform="translate(-188.53 0)"
     fill="url(#linear-gradient-4)"
     id="path106" />
  <path
     d="M365.92,3.81c-.2-.3.78,1.33-2.92,1-1.43-.13-4.83,1.38-6.5,4.31-2.73,4.8-3.84,2.34-5.82,6s-2.41,5.65-.3,9.23c.77,1.3,1.82,2.51,2.09,4-1.15-.33-1.75-1.63-2.82-2.12a2.81,2.81,0,0,0-3.54,1.6,4.55,4.55,0,0,0,.58,4.12,12.77,12.77,0,0,0,3.07,3,14.53,14.53,0,0,1,3.14,3c.26.37.49.88.23,1.26a1.18,1.18,0,0,1-.81.39,12.53,12.53,0,0,1-7-1.22,22.38,22.38,0,0,1-12.83-21.44,8.33,8.33,0,0,1,.65-3,9.42,9.42,0,0,1,2-2.57A43.05,43.05,0,0,1,353.81.67c2.42-.66,5.09-1.09,7.35,0s3.67,1.11,4.76,3.17"
     transform="translate(-188.53 0)"
     fill="#3f3d56"
     id="path108" />
  <path
     d="M350.92,38.6l2.85,7s2.86,4.56,12.15,3.57,7.21-2.06,7.21-2.06-4.7-.26-7.84-7.92S350.92,38.6,350.92,38.6Z"
     transform="translate(-188.53 0)"
     fill="url(#linear-gradient-5)"
     id="path110" />
  <path
     d="M396.7,116.62c-9.23,3.23-19.63,2-25.17.89-2.48-.48-4-.93-4-.93s-44.43-58.69-15-71.29c0,0,3-1.06,14.42.32s17.61,9.74,18.81,12.49,3.31,18.51,3.31,18.51l12.1,13.51S410.08,112,396.7,116.62Z"
     transform="translate(-188.53 0)"
     fill="#46699d"
     id="path112" />
  <path
     d="M376.13,102.06l-4.6,15.45c-2.48-.48-4-.93-4-.93s-44.43-58.69-15-71.29l8.24,24s-5.06,6.25,5.15,19.51Z"
     transform="translate(-188.53 0)"
     fill="url(#linear-gradient-6)"
     id="path114" />
  <path
     d="M401.18,90.12s23.59-21.83,35.28-24.75,58.17,47.35,58.17,47.35l-16.85,6.22L437.24,90.51S397.5,138,374.54,121.87,401.18,90.12,401.18,90.12Z"
     transform="translate(-188.53 0)"
     fill="#3f3d56"
     id="path116" />
  <path
     d="M480.82,117.81l5.43,5s11.11,2.82,12.76-.93-4.38-9.15-4.38-9.15Z"
     transform="translate(-188.53 0)"
     fill="url(#linear-gradient-7)"
     id="path118" />
  <path
     d="M480.82,120.07s12.83-5.74,16.73-5.94,21.63,1.75,24.94,5.46a4.85,4.85,0,0,1,1,5.43H480.82Z"
     transform="translate(-188.53 0)"
     fill="#25233a"
     id="path120" />
  <rect
     x="143.91"
     y="167.7"
     width="201.45"
     height="80.87"
     rx="15.3"
     fill="#fff"
     id="rect122" />
  <rect
     x="173.38"
     y="323.61"
     width="141.72"
     height="11.29"
     fill="#46699d"
     id="rect124" />
  <path
     d="M159.66,313h2.22a0,0,0,0,1,0,0v34.33a0,0,0,0,1,0,0h-2.22a7.66,7.66,0,0,1-7.66-7.66v-19A7.66,7.66,0,0,1,159.66,313Z"
     fill="#46699d"
     id="path126" />
  <rect
     x="161.67"
     y="301"
     width="15.48"
     height="56.5"
     rx="6.69"
     fill="#46699d"
     id="rect128" />
  <path
     d="M365.68,307.7v43.11A6.69,6.69,0,0,1,359,357.5H356.9a6.69,6.69,0,0,1-6.69-6.69V307.7a6.69,6.69,0,0,1,6.69-6.7H359A6.69,6.69,0,0,1,365.68,307.7Z"
     transform="translate(-188.53 0)"
     fill="url(#linear-gradient-8)"
     id="path130" />
  <path
     d="M516.12,307.7v43.11a6.7,6.7,0,0,1-6.69,6.69h-2.09a6.7,6.7,0,0,1-6.7-6.69V307.7a6.7,6.7,0,0,1,6.7-6.7h2.09A6.7,6.7,0,0,1,516.12,307.7Z"
     transform="translate(-188.53 0)"
     fill="url(#linear-gradient-9)"
     id="path132" />
  <path
     d="M523.58,313h2.22a0,0,0,0,1,0,0v34.33a0,0,0,0,1,0,0h-2.22a7.66,7.66,0,0,1-7.66-7.66v-19A7.66,7.66,0,0,1,523.58,313Z"
     transform="translate(853.18 660.41) rotate(180)"
     fill="#46699d"
     id="path134" />
  <rect
     x="177.15"
     y="323.61"
     width="134.96"
     height="11.28"
     fill="url(#linear-gradient-10)"
     id="rect136" />
  <path
     d="M159.66,313h2.22a0,0,0,0,1,0,0v34.33a0,0,0,0,1,0,0h-2.22a7.66,7.66,0,0,1-7.66-7.66v-19A7.66,7.66,0,0,1,159.66,313Z"
     fill="url(#linear-gradient-11)"
     id="path138" />
  <path
     d="M523.58,313h2.22a0,0,0,0,1,0,0v34.33a0,0,0,0,1,0,0h-2.22a7.66,7.66,0,0,1-7.66-7.66v-19A7.66,7.66,0,0,1,523.58,313Z"
     transform="translate(853.18 660.41) rotate(180)"
     fill="url(#linear-gradient-12)"
     id="path140" />
  <rect
     x="222.99"
     y="442.78"
     width="39.33"
     height="11.29"
     fill="#46699d"
     id="rect142" />
  <rect
     x="190.56"
     y="425.03"
     width="32.43"
     height="46.8"
     rx="9.26"
     fill="#46699d"
     id="rect144" />
  <rect
     x="262.31"
     y="425.02"
     width="32.43"
     height="46.8"
     rx="9.26"
     fill="#46699d"
     id="rect146" />
  <path
     d="M395.3,425v46.79h-6.95a9.25,9.25,0,0,1-9.26-9.26V434.29a9.25,9.25,0,0,1,9.26-9.26Z"
     transform="translate(-188.53 0)"
     fill="#46699d"
     id="path148" />
  <path
     d="M467.06,425v46.79h-6.95a9.25,9.25,0,0,1-9.26-9.26V434.29a9.25,9.25,0,0,1,9.26-9.26Z"
     transform="translate(-188.53 0)"
     fill="#46699d"
     id="path150" />
  <rect
     x="222.99"
     y="442.78"
     width="39.33"
     height="11.29"
     fill="url(#linear-gradient-13)"
     id="rect152" />
  <rect
     x="190.56"
     y="425.03"
     width="32.43"
     height="46.8"
     rx="9.26"
     fill="url(#linear-gradient-14)"
     id="rect154" />
  <rect
     x="262.31"
     y="425.02"
     width="32.43"
     height="46.8"
     rx="9.26"
     fill="url(#linear-gradient-15)"
     id="rect156" />
  <path
     d="M395.3,425v46.79h-6.95a9.25,9.25,0,0,1-9.26-9.26V434.29a9.25,9.25,0,0,1,9.26-9.26Z"
     transform="translate(-188.53 0)"
     fill="url(#linear-gradient-16)"
     id="path158" />
  <path
     d="M467.06,425v46.79h-6.95a9.25,9.25,0,0,1-9.26-9.26V434.29a9.25,9.25,0,0,1,9.26-9.26Z"
     transform="translate(-188.53 0)"
     fill="url(#linear-gradient-17)"
     id="path160" />
  <path
     d="M327.44,25.68a8.2,8.2,0,0,0,.67,4.77,7,7,0,0,0,2.57,3.34,5.9,5.9,0,0,0,6.05-.2,1,1,0,0,0,.46-.44c.14-.35-.11-.73-.34-1l-2.91-3.74c-1.34-1.72-2.24-3.57-3.42-5.35-.62-.95-1-.72-1.83.14A5.16,5.16,0,0,0,327.44,25.68Z"
     transform="translate(-188.53 0)"
     fill="url(#linear-gradient-18)"
     id="path162" />
  <path
     d="M369.16,58.1c-.79,10.95-18.88,15.76-18.88,15.76C341.4,64.51,348,53.72,348,53.72v-.16l-.33-5.39L346.9,35.4l-.2-3.35v-.11l-7.12,2.56s-4.82-1.69-5.64-2.21-2.56-3.38-4.12-6.93,3.35-5.51,3.35-5.51,14.31-3.15,20.61-6a12.18,12.18,0,0,1,11.52,1S369.94,47.17,369.16,58.1Z"
     transform="translate(-188.53 0)"
     fill="#46699d"
     id="path164" />
  <path
     d="M369.16,58.1c-.79,10.95-18.88,15.76-18.88,15.76C341.4,64.51,348,53.72,348,53.72v-.16l-.33-5.39L346.9,35.4l-.2-3.35v-.11l-7.12,2.56s-4.82-1.69-5.64-2.21-2.56-3.38-4.12-6.93,3.35-5.51,3.35-5.51,14.31-3.15,20.61-6a12.18,12.18,0,0,1,11.52,1S369.94,47.17,369.16,58.1Z"
     transform="translate(-188.53 0)"
     fill="url(#linear-gradient-19)"
     id="path166" />
  <path
     d="M353,44.46a16.43,16.43,0,0,1-1.16,4.76c-.95,2.12-2.25,2.84-3.87,4.5.15-.25.12-.27,0-.16l-.33-5.39a1.54,1.54,0,0,1,.08-.19c.9-2.22-.14-4.8-.31-7.2-.14-1.79-.32-3.58-.53-5.38l-.21-1.62c-.13-1-.32-1.37,0-1.73a2.57,2.57,0,0,1,.72-.45,8.16,8.16,0,0,1,3.4-.47,2,2,0,0,1,1.56.53,2.18,2.18,0,0,1,.38,1A36.56,36.56,0,0,1,353,44.46Z"
     transform="translate(-188.53 0)"
     fill="url(#linear-gradient-20)"
     id="path168" />
  <path
     d="M311.54,22.87c.12,5.13,2.64,9.9,5.66,14.05a4.36,4.36,0,0,1,1,2c.18,1.42-1,2.59-1.93,3.69A15.87,15.87,0,0,0,313,53.9a32.88,32.88,0,0,0,3.41,11.51A71.72,71.72,0,0,0,333,87.9a7.65,7.65,0,0,1,2.22,2.72,2.45,2.45,0,0,1-.92,3.08c-1.2.56-2.54-.32-3.54-1.18a70.69,70.69,0,0,1-21.64-33.87c-1.28-4.49-2.06-9.51.08-13.66a17,17,0,0,0,1.94-3.91c.68-3.06-1.7-5.85-3.13-8.64a15.63,15.63,0,0,1-.37-13.25c1-2.16,5-8.52,7.91-6.65C313.55,15.89,311.45,18.59,311.54,22.87Z"
     transform="translate(-188.53 0)"
     fill="#46699d"
     opacity="0.47"
     id="path170" />
  <path
     d="M290.16,31.52c.59,5.09,3.55,9.61,6.95,13.45a4.74,4.74,0,0,1,1.19,1.89c.31,1.4-.77,2.67-1.59,3.85a15.88,15.88,0,0,0-2.2,11.56A32.73,32.73,0,0,0,299,73.41a71.63,71.63,0,0,0,18.63,20.86,7.73,7.73,0,0,1,2.47,2.49,2.46,2.46,0,0,1-.64,3.16c-1.13.67-2.56-.09-3.63-.85a70.67,70.67,0,0,1-24.7-31.71c-1.69-4.35-2.94-9.27-1.19-13.6a16.68,16.68,0,0,0,1.56-4.07c.39-3.12-2.23-5.67-3.91-8.32A15.63,15.63,0,0,1,286,28.22c.76-2.25,4.19-8.95,7.26-7.36C291.51,24.38,289.67,27.27,290.16,31.52Z"
     transform="translate(-188.53 0)"
     fill="#46699d"
     opacity="0.47"
     id="path172" />
  <path
     d="M386.66,191.41s-15.21,17.92-12.08,24.17,31.51,5.94,31.51,5.94l6,27h40.63L459,222s27.29,0,29-8.34-14-25-14-25-.84-6-3.55-5.62-7.91.62-8.75,3.54,3.21,5.21,3.21,5.21-2.12,1.17-1.5,2,5.18,1,5.18,1,2.5,12.42,5,13.25c0,0-14.87-9.36-26.81-5.61,0,0-6.95,5.61-5.91-.07.3-1.64,1.46-7.08,1.46-7.08s3.75-2.29,3.75-3.75-2.08-1.46-2.71-.83,1.46-6.09-2.92-7.73-13.12-3.52-16.87,2.31-.11,8-3.23,9.69l1.77,2.08s-1.23,4.55.31,5.21c4.07,1.75,2.55,2.77.42,3.33a5.74,5.74,0,0,1-5.33-1.32c-1.74-1.6-8.93-3.42-13.8-1.42-12.64,5.19-17.54,5.87-17.54,5.87s5.94-1.15,8.23-10.32,5.31-12.29,5.31-12.29,3.86-.41,3.86-1-1.77-1.87-1.77-1.87,1.35-3.41-.59-4.38a38.44,38.44,0,0,0-6.12-1.94s-2.38.55-2.78,4.72S386.66,191.41,386.66,191.41Z"
     transform="translate(-188.53 0)"
     fill="#46699d"
     id="path174" />
  <path
     d="M447.5,546.18H422.16a5.66,5.66,0,0,1-5.66-5.67h0a5.66,5.66,0,0,1,5.66-5.66H447.5a5.66,5.66,0,0,1,5.66,5.66h0A5.66,5.66,0,0,1,447.5,546.18Z"
     transform="translate(-188.53 0)"
     fill="#46699d"
     id="path176" />
  <path
     style="opacity:1;fill:#6e6faa;fill-opacity:0.99462366;stroke:#e4b4b0;stroke-width:0.71927708;stroke-opacity:0.22758011"
     d="m 165.84073,356.48424 c -2.29645,-1.02495 -3.68673,-3.52235 -4.05003,-7.2752 -0.18519,-1.91296 -0.50379,-2.1825 -2.80758,-2.3752 -1.69939,-0.14214 -3.25214,-0.89942 -4.487,-2.18833 -1.83067,-1.91081 -1.90303,-2.32799 -2.37046,-13.66673 -0.28537,-6.92235 -0.21544,-11.61739 0.17133,-11.50373 1.50288,0.44165 9.64446,-1.90672 9.64446,-2.78185 0,-0.70213 1.85387,-0.93055 7.55241,-0.93055 h 7.55241 v 5.39458 5.39458 l 7.01295,-0.002 c 16.81127,-0.005 127.03368,-2.23207 127.59285,-2.57765 0.34006,-0.21017 0.61829,-3.11426 0.61829,-6.45354 v -6.0714 l 3.77621,0.006 c 2.07691,0.003 5.4755,0.21036 7.55241,0.45983 l 3.7762,0.45357 v 5.20448 5.20448 l 2.24774,0.44955 c 1.23626,0.24725 3.31964,0.44955 4.62973,0.44955 2.04078,0 2.42822,-0.28334 2.7047,-1.97801 0.17749,-1.08791 0.19993,0.61138 0.0499,3.7762 -0.15006,3.16482 -0.27477,8.23786 -0.27714,11.27343 -0.004,4.84446 -0.22567,5.78229 -1.81502,7.67112 -1.21382,1.44254 -2.75502,2.31145 -4.67531,2.63588 -2.56079,0.43264 -2.86462,0.70254 -2.86462,2.54473 0,4.80034 -2.99231,7.55224 -8.06734,7.41916 -2.07655,-0.0544 -3.39394,-0.60017 -4.77302,-1.9772 -1.8351,-1.83239 -1.91798,-2.26793 -2.26446,-11.89996 -0.1978,-5.49888 -0.52147,-10.12779 -0.71927,-10.28647 -0.19781,-0.15868 -22.04585,0.11436 -48.55121,0.60675 -26.50536,0.4924 -56.6623,0.91962 -67.01543,0.94939 l -18.82386,0.0541 -0.23698,9.3363 c -0.2248,8.85641 -0.32941,9.42692 -2.03517,11.09951 -2.25619,2.21229 -6.12366,2.88962 -9.04771,1.58457 z"
     id="path183"
     inkscape:connector-curvature="0" />
  <path
     style="opacity:1;fill:#6e6faa;fill-opacity:0.99462364;stroke:#e4b4b0;stroke-width:0.71927708;stroke-opacity:0.22758011"
     d="m 324.85771,311.74639 c -0.7912,-0.12319 -3.94703,-0.4304 -7.01295,-0.6827 l -5.5744,-0.45872 v -2.14375 c 0,-4.75295 2.50412,-7.02964 7.76658,-7.06124 5.13326,-0.0308 7.33824,2.15515 7.33824,7.27493 0,1.92025 -0.24275,3.44728 -0.53946,3.3934 -0.2967,-0.0539 -1.1868,-0.19874 -1.97801,-0.32192 z"
     id="path990"
     inkscape:connector-curvature="0" />
  <path
     style="opacity:1;fill:#6e6faa;fill-opacity:0.99462364;stroke:#e4b4b0;stroke-width:0.71927708;stroke-opacity:0.22758011"
     d="m 327.88608,322.50728 c -0.28099,-0.28099 -0.5109,-2.59686 -0.5109,-5.14637 v -4.63547 l 2.69729,0.49599 c 3.97946,0.73175 6.77438,3.6713 6.50698,6.84371 l -0.2133,2.53064 -3.98459,0.2112 c -2.19152,0.11616 -4.21448,-0.0187 -4.49548,-0.2997 z"
     id="path992"
     inkscape:connector-curvature="0" />
  <path
     style="opacity:1;fill:#6e6faa;fill-opacity:0.99462364;stroke:#e4b4b0;stroke-width:0.71927708;stroke-opacity:0.22758011"
     d="m 153.16163,317.47866 c 1.21986,-2.27933 3.23937,-3.66549 6.08253,-4.17497 l 2.69729,-0.48333 v -3.8184 c 0,-3.05621 0.35208,-4.19831 1.76385,-5.72163 1.49234,-1.61027 2.36822,-1.90322 5.69027,-1.90322 3.50146,0 4.12798,0.23952 5.78856,2.21302 1.58037,1.87816 1.86214,2.9121 1.86214,6.83313 v 4.62011 h -6.45135 c -5.14754,0 -7.03509,0.30427 -9.3398,1.50555 -1.58866,0.82806 -4.22486,1.6848 -5.85824,1.90388 -2.75167,0.36908 -2.91583,0.29754 -2.23525,-0.97414 z"
     id="path994"
     inkscape:connector-curvature="0" />
  <path
     style="opacity:1;fill:#6e6faa;fill-opacity:0.99462364;stroke:#e4b4b0;stroke-width:0.71927708;stroke-opacity:0.22758011"
     d="m 168.23512,315.23599 c 1.68131,-0.15143 4.43255,-0.15143 6.11386,0 1.68131,0.15144 0.30569,0.27533 -3.05693,0.27533 -3.36262,0 -4.73824,-0.12389 -3.05693,-0.27533 z"
     id="path996"
     inkscape:connector-curvature="0" />
  <path
     style="opacity:1;fill:#6e6faa;fill-opacity:0.99462364;stroke:#e4b4b0;stroke-width:0.71927708;stroke-opacity:0.22758011"
     d="m 164.47481,355.87866 c -1.45627,-1.25264 -2.16791,-2.66624 -2.46942,-4.90526 -0.37488,-2.78382 -0.67169,-3.19645 -2.58141,-3.58876 -6.66807,-1.36979 -7.55241,-3.40917 -7.55241,-17.41651 0,-7.62814 0.26678,-11.30744 0.86313,-11.90379 0.47472,-0.47473 0.64813,-0.86314 0.38534,-0.86314 -0.26278,0 0.23891,-0.74914 1.11488,-1.66477 0.87597,-0.91562 1.81306,-1.55769 2.08243,-1.42682 0.26937,0.13087 0.69306,-0.091 0.94155,-0.49306 0.24848,-0.40205 1.3734,-0.73101 2.49983,-0.73101 1.68984,0 1.98264,-0.25011 1.67409,-1.43 -0.61459,-2.3502 0.4357,-5.98829 2.36061,-8.17689 2.72731,-3.10091 8.52213,-3.13862 11.58537,-0.0754 0.48383,0.48383 0.67932,1.08006 0.43442,1.32496 -0.2449,0.24489 -0.11671,0.44526 0.28487,0.44526 0.40962,0 0.7939,2.18402 0.8754,4.97522 0.12437,4.25923 -0.0411,5.02356 -1.14971,5.31114 -1.19373,0.30966 -1.19656,0.34245 -0.0362,0.41936 1.08178,0.0717 1.25873,0.85666 1.25873,5.58357 v 5.50014 l 23.19669,-0.4624 c 12.75818,-0.25432 41.80799,-0.79828 64.55512,-1.20882 22.74714,-0.41053 42.73406,-0.91714 44.41537,-1.12578 l 3.05692,-0.37937 v -6.02421 -6.02421 l 2.33765,-0.2901 2.33765,-0.2901 -2.33765,-0.11511 c -2.22453,-0.10954 -2.33765,-0.25297 -2.33765,-2.9642 0,-2.90285 2.03752,-5.78223 4.09165,-5.78223 0.51881,0 0.94329,-0.27157 0.94329,-0.60349 0,-0.51016 4.65445,-0.59563 5.75422,-0.10566 0.1978,0.0881 0.58378,0.1281 0.85774,0.0888 0.27395,-0.0393 1.16405,0.77525 1.97801,1.81002 1.07602,1.36795 1.47991,2.93458 1.47991,5.74043 0,3.64233 0.10152,3.85902 1.80796,3.85902 2.8029,0 5.68813,1.87532 7.23587,4.70312 1.2897,2.35631 1.3377,21.92974 0.0613,24.98464 -1.16249,2.78221 -4.25182,4.83754 -7.27121,4.83754 -1.66581,0 -1.83391,0.2688 -1.83391,2.93244 0,2.30905 -0.46574,3.39818 -2.19084,5.12328 -1.99664,1.99664 -2.51203,2.15998 -5.81424,1.84268 -6.06588,-0.58285 -6.67333,-1.69277 -7.09974,-12.97233 l -0.35964,-9.51342 h -67.2524 -67.25241 l -0.35964,9.51342 c -0.42487,11.2389 -1.04696,12.39074 -7.00097,12.96284 -2.98581,0.2869 -3.83739,0.0697 -5.57049,-1.42109 z M 335.1158,323.1805 c -0.6877,-0.18003 -1.98239,-0.18656 -2.87711,-0.0145 -0.89472,0.17205 -0.33206,0.31935 1.25035,0.32733 1.58241,0.008 2.31445,-0.13278 1.62676,-0.31281 z m -180.1873,-4.29783 c -0.49451,-0.19953 -1.30369,-0.19953 -1.7982,0 -0.4945,0.19954 -0.0899,0.3628 0.8991,0.3628 0.98901,0 1.3936,-0.16326 0.8991,-0.3628 z m 6.29367,-1.68147 c 0.5934,-0.38348 0.75524,-0.69724 0.35964,-0.69724 -0.3956,0 -1.20479,0.31376 -1.79819,0.69724 -0.59341,0.38349 -0.75524,0.69725 -0.35964,0.69725 0.3956,0 1.20479,-0.31376 1.79819,-0.69725 z m 6.27869,-1.87311 c -0.23901,-0.23901 -0.85939,-0.26457 -1.37861,-0.0568 -0.5738,0.22961 -0.40336,0.40005 0.43456,0.43456 0.75824,0.0312 1.18306,-0.13877 0.94405,-0.37778 z"
     id="path998"
     inkscape:connector-curvature="0" />
  <path
     style="opacity:1;fill:#6e6faa;fill-opacity:0.99462364;stroke:#e4b4b0;stroke-width:0.71927708;stroke-opacity:0.22758011"
     d="m 164.13229,355.46656 c -1.27088,-1.27088 -2.19084,-2.94446 -2.19084,-3.98554 0,-2.7528 -0.73489,-4.07018 -2.27051,-4.07018 -2.36688,0 -5.56047,-2.07249 -6.75595,-4.3843 -0.93371,-1.8056 -1.0978,-4.31889 -0.91127,-13.95785 0.21913,-11.32407 0.29198,-11.8243 1.98401,-13.62339 1.00175,-1.06514 2.89735,-2.05009 4.41151,-2.29221 2.58627,-0.41356 2.66387,-0.517 2.99816,-3.99602 0.42449,-4.41776 2.41689,-7.22168 5.72904,-8.06253 3.21928,-0.81727 5.98547,-0.12079 8.1611,2.05484 1.65019,1.65019 1.71377,2.10634 1.71377,12.29586 0,5.82015 0.11623,10.69832 0.25829,10.84038 0.52192,0.52193 134.18095,-2.26063 134.72507,-2.80474 0.15517,-0.15518 0.30711,-4.28744 0.33764,-9.1828 0.0306,-4.89537 0.35938,-9.46845 0.73077,-10.1624 1.10238,-2.05981 5.38665,-3.71543 8.36416,-3.23224 3.917,0.63564 5.51777,2.64588 5.95038,7.47245 0.3463,3.8636 0.49005,4.12196 2.52503,4.53799 6.60474,1.35025 7.55241,3.4661 7.55241,16.86206 0,13.92078 -1.00486,16.26367 -7.55241,17.6087 -1.90972,0.39231 -2.20653,0.80494 -2.5814,3.58876 -0.62338,4.62917 -3.35264,6.77674 -8.03992,6.32635 -5.95402,-0.5721 -6.5761,-1.72394 -7.00097,-12.96284 l -0.35964,-9.51342 -13.48644,0.009 c -7.41755,0.005 -37.76205,0.0859 -67.43223,0.17982 l -53.94578,0.17083 v 8.95086 c 0,8.31296 -0.11835,9.08844 -1.6607,10.88153 -1.28511,1.49403 -2.49769,2.0111 -5.36157,2.28628 -3.39152,0.32588 -3.88399,0.17248 -5.89171,-1.83524 z"
     id="path1000"
     inkscape:connector-curvature="0" />
  <path
     style="opacity:1;fill:#6e6faa;fill-opacity:0.99462364;stroke:#e4b4b0;stroke-width:0.71927708;stroke-opacity:0.22758011"
     d="m 164.50006,355.90037 c -1.28598,-1.10615 -2.18378,-2.74077 -2.46943,-4.49606 -0.24685,-1.5169 -0.93433,-2.99671 -1.52774,-3.28846 -0.5934,-0.29175 -2.27807,-1.04303 -3.7437,-1.66951 -4.49116,-1.91973 -5.01739,-3.8427 -4.75547,-17.37765 0.21672,-11.19933 0.30763,-11.84093 1.92075,-13.55606 0.9313,-0.99018 2.87101,-2.07886 4.31046,-2.41928 2.46662,-0.58334 2.6462,-0.82175 3.12138,-4.14366 0.63628,-4.44814 2.53581,-7.03405 5.77013,-7.85515 3.22893,-0.81972 5.98653,-0.11973 8.18358,2.07732 1.67809,1.67809 1.73625,2.09062 1.73625,12.31597 v 10.57972 l 36.50331,-0.47954 c 41.54189,-0.54574 96.48062,-1.82764 97.82169,-2.28249 0.65545,-0.22231 0.89909,-2.75635 0.89909,-9.35118 0,-8.60421 0.0848,-9.13107 1.73625,-10.78248 5.0129,-5.0129 13.36857,-2.06472 13.36857,4.71692 0,3.66909 0.60329,4.99676 2.27051,4.99676 2.33398,0 5.5542,2.06038 6.70828,4.29212 1.50436,2.90911 1.55576,21.97451 0.0688,25.53321 -1.03951,2.48792 -4.22918,4.69997 -6.77711,4.69997 -1.53562,0 -2.27051,1.31738 -2.27051,4.07018 0,1.04108 -0.91996,2.71466 -2.19084,3.98554 -2.00772,2.00772 -2.50019,2.16112 -5.89171,1.83524 -2.86387,-0.27518 -4.07646,-0.79225 -5.36157,-2.28628 -1.51433,-1.76052 -1.6607,-2.6193 -1.6607,-9.74379 0,-4.29721 -0.19646,-8.32509 -0.43659,-8.95085 -0.3938,-1.02624 -7.02035,-1.13775 -67.61205,-1.13775 h -67.17545 v 8.95086 c 0,8.31296 -0.11835,9.08844 -1.6607,10.88153 -2.45383,2.85275 -8.06721,3.30905 -10.88551,0.88485 z"
     id="path1002"
     inkscape:connector-curvature="0" />
  <path
     style="opacity:1;fill:#6e6faa;fill-opacity:0.99462364;stroke:#e4b4b0;stroke-width:0.71927708;stroke-opacity:0.22758011"
     d="m 164.13229,355.46656 c -1.20496,-1.20496 -2.1958,-2.94401 -2.20186,-3.86454 -0.0158,-2.40206 -0.65517,-3.0864 -4.4334,-4.74528 -5.30728,-2.33022 -5.76384,-3.8086 -5.49331,-17.78805 0.21827,-11.27955 0.2977,-11.83038 1.96089,-13.59878 0.95338,-1.01369 2.80347,-2.04381 4.11132,-2.28917 2.43502,-0.45681 2.69241,-0.86104 3.46198,-5.43699 1.16287,-6.91458 8.87068,-9.47332 13.77211,-4.57189 1.66005,1.66005 1.73673,2.15592 1.74726,11.29936 0.006,5.25971 0.29935,10.01857 0.65176,10.57523 0.54168,0.85564 5.12694,0.93856 29.65916,0.53631 67.59753,-1.10836 103.8246,-2.1192 104.35169,-2.91171 0.29065,-0.437 0.5334,-4.61243 0.53946,-9.27874 0.0104,-8.00272 0.10955,-8.58274 1.74726,-10.22045 4.89867,-4.89868 13.36857,-2.07081 13.36857,4.46339 0,2.99698 1.10664,5.25029 2.5785,5.25029 2.26535,0 5.48172,2.33677 6.46913,4.69997 0.71906,1.72095 1.02225,5.44699 1.02225,12.56268 0,12.09724 -0.7128,14.50471 -4.81536,16.26369 -1.50537,0.64543 -3.22256,1.41222 -3.81596,1.70397 -0.59341,0.29175 -1.28089,1.77156 -1.52774,3.28846 -0.28565,1.75529 -1.18345,3.38991 -2.46943,4.49606 -2.81829,2.4242 -8.43168,1.9679 -10.88551,-0.88485 -1.51454,-1.76076 -1.6607,-2.61896 -1.6607,-9.75124 0,-6.15057 -0.24136,-8.06192 -1.13029,-8.95085 -1.01123,-1.01124 -8.13313,-1.1303 -67.61205,-1.1303 h -66.48175 v 8.95086 c 0,8.31296 -0.11835,9.08844 -1.6607,10.88153 -1.28511,1.49403 -2.49769,2.0111 -5.36157,2.28628 -3.39152,0.32588 -3.88399,0.17248 -5.89171,-1.83524 z"
     id="path1004"
     inkscape:connector-curvature="0" />
  <path
     style="opacity:1;fill:#6e6faa;fill-opacity:0.99462364;stroke:#e4b4b0;stroke-width:0.71927708;stroke-opacity:0.22758011"
     d="m 164.13229,355.46656 c -1.23549,-1.23549 -2.19084,-2.95048 -2.19084,-3.93288 0,-1.99178 -1.35182,-3.29296 -5.25452,-5.05768 -4.3344,-1.95992 -4.95448,-4.31683 -4.68377,-17.80283 0.21619,-10.76955 0.31575,-11.45352 1.91463,-13.15346 0.92762,-0.98625 2.54418,-2.00842 3.59236,-2.2715 2.67963,-0.67254 3.71202,-1.70453 3.71202,-3.71059 0,-4.76667 3.83145,-8.87979 8.27169,-8.87979 2.42585,0 5.8711,1.79882 6.81181,3.55655 0.40733,0.7611 0.7406,5.42791 0.7406,10.37069 0,7.4622 0.20529,9.19217 1.21007,10.19694 1.10189,1.10189 3.20777,1.16992 23.55632,0.76098 12.29044,-0.247 39.66285,-0.76826 60.82758,-1.15834 42.52512,-0.78378 48.229,-1.05674 49.04887,-2.3472 0.30758,-0.48412 0.56418,-4.53627 0.57024,-9.00478 0.0104,-7.62247 0.11832,-8.23186 1.74726,-9.86081 4.69967,-4.69967 13.36857,-2.0996 13.36857,4.00964 0,2.93302 1.23169,5.70404 2.53539,5.70404 2.30476,0 5.51717,2.31844 6.51224,4.69997 0.71906,1.72095 1.02225,5.44699 1.02225,12.56268 0,12.59381 -0.64091,14.51943 -5.55011,16.67522 -3.85438,1.69259 -4.4929,2.36933 -4.50876,4.77861 -0.006,0.92053 -0.99688,2.65958 -2.20185,3.86454 -1.99664,1.99664 -2.51203,2.15998 -5.81424,1.84268 -5.93356,-0.57014 -6.66404,-1.80384 -7.13419,-12.04892 -0.21675,-4.72321 -0.6482,-8.84189 -0.95877,-9.15261 -0.31057,-0.31071 -30.63957,-0.65548 -67.39777,-0.76614 l -66.8331,-0.2012 v 8.97224 c 0,8.3353 -0.1179,9.10929 -1.6607,10.90291 -1.28511,1.49403 -2.49769,2.0111 -5.36157,2.28628 -3.39152,0.32588 -3.88399,0.17248 -5.89171,-1.83524 z"
     id="path1006"
     inkscape:connector-curvature="0" />
  <path
     style="opacity:1;fill:#6e6faa;fill-opacity:0.99462364;stroke:#e4b4b0;stroke-width:0.71927708;stroke-opacity:0.22758011"
     d="m 164.65608,356.07435 c -1.08916,-0.85985 -2.30069,-2.81058 -2.72562,-4.38865 -0.64574,-2.39809 -1.32922,-3.12672 -4.38598,-4.6757 -5.32166,-2.69669 -5.82204,-4.35248 -5.54132,-18.33683 0.21619,-10.76955 0.31575,-11.45352 1.91463,-13.15346 0.92762,-0.98625 2.54418,-2.00842 3.59236,-2.2715 2.67963,-0.67254 3.71202,-1.70453 3.71202,-3.71059 0,-4.76667 3.83145,-8.87979 8.27169,-8.87979 2.42585,0 5.8711,1.79882 6.81181,3.55655 0.40733,0.7611 0.7406,5.22733 0.7406,9.92495 0,6.25 0.27438,8.91567 1.02285,9.93735 0.98151,1.33977 1.93381,1.38654 23.55633,1.157 41.08656,-0.43616 109.206,-2.03815 109.74984,-2.58103 0.29449,-0.29396 0.69727,-4.58338 0.89507,-9.53206 0.33527,-8.38794 0.47546,-9.09124 2.06897,-10.37966 5.09142,-4.11665 13.03585,-1.41043 13.03585,4.44057 0,2.93302 1.23169,5.70404 2.53539,5.70404 2.30476,0 5.51717,2.31844 6.51224,4.69997 0.71906,1.72095 1.02225,5.44699 1.02225,12.56268 0,12.06131 -0.71091,14.47187 -4.81536,16.32781 -3.9027,1.76472 -5.25452,3.0659 -5.25452,5.05768 0,0.9824 -0.95535,2.69739 -2.19084,3.93288 -2.00772,2.00772 -2.50019,2.16112 -5.89171,1.83524 -5.85594,-0.56268 -6.73023,-2.06611 -7.18423,-12.35385 -0.20336,-4.60815 -0.6007,-8.60946 -0.88299,-8.89181 -0.28229,-0.28236 -30.58808,-0.62714 -67.34619,-0.7662 l -66.83295,-0.25284 v 9.02387 c 0,8.38924 -0.1168,9.15965 -1.6607,10.95455 -2.34567,2.727 -7.91966,3.27707 -10.72949,1.05883 z"
     id="path1008"
     inkscape:connector-curvature="0" />
  <path
     style="opacity:1;fill:#6e6faa;fill-opacity:0.99462364;stroke:#e4b4b0;stroke-width:0.71927708;stroke-opacity:0.22758011"
     d="m 164.65608,356.07435 c -1.08916,-0.85985 -2.30069,-2.81058 -2.72562,-4.38865 -0.64574,-2.39809 -1.32922,-3.12672 -4.38598,-4.6757 -5.32943,-2.70062 -5.82175,-4.3401 -5.54132,-18.45341 l 0.22805,-11.47686 2.34899,-2.09709 c 1.29195,-1.1534 2.99819,-2.0971 3.79163,-2.0971 1.51423,0 2.13406,-1.10909 3.53653,-6.32807 1.43386,-5.33576 7.16658,-7.46537 12.06168,-4.48071 2.80937,1.71295 2.98698,2.43563 3.23781,13.17395 0.1541,6.59742 0.43748,8.63008 1.27697,9.15977 1.47823,0.93269 25.92512,0.83367 83.33565,-0.33756 32.76265,-0.66839 48.70464,-1.24236 49.23494,-1.77266 0.43132,-0.43133 0.96206,-4.69729 1.17941,-9.47992 0.36566,-8.04608 0.52288,-8.79901 2.10451,-10.07859 4.91522,-3.97655 13.03585,-1.43486 13.03585,4.08011 0,3.32825 1.31874,5.22409 4.66281,6.70333 4.74851,2.10049 5.40707,4.12512 5.40707,16.623 0,12.53844 -0.58756,14.28487 -5.67291,16.86181 -3.05677,1.54898 -3.74024,2.27761 -4.38598,4.6757 -1.12259,4.16897 -3.81672,6.01919 -8.16288,5.60595 -5.60862,-0.53329 -6.35568,-1.77737 -7.07958,-11.78968 -0.33676,-4.65761 -0.93061,-8.78671 -1.31968,-9.17577 -0.44893,-0.44893 -25.01682,-0.82058 -67.24257,-1.01721 l -66.53519,-0.30982 v 9.04283 c 0,8.40905 -0.1164,9.17816 -1.6607,10.97352 -2.34567,2.727 -7.91966,3.27707 -10.72949,1.05883 z"
     id="path1010"
     inkscape:connector-curvature="0" />
  <path
     style="opacity:1;fill:#6e6faa;fill-opacity:0.99462364;stroke:#e4b4b0;stroke-width:0.71927708;stroke-opacity:0.22758011"
     d="m 164.90696,356.25839 c -0.93207,-0.75475 -2.3852,-2.81145 -3.22919,-4.57045 -1.09219,-2.27631 -2.43785,-3.69245 -4.6684,-4.9129 -4.74751,-2.59761 -5.27887,-4.51895 -5.00621,-18.10187 0.21766,-10.84288 0.30657,-11.44377 1.95219,-13.19344 0.94828,-1.00824 2.75866,-2.17458 4.02308,-2.59188 2.01612,-0.66538 2.44642,-1.28918 3.49779,-5.07075 0.96045,-3.45456 1.66227,-4.59459 3.52933,-5.73296 2.78979,-1.70098 5.60777,-1.81424 8.45873,-0.33995 3.09385,1.59989 3.57454,3.08312 3.65368,11.27389 0.0934,9.66765 0.43146,10.77251 3.54774,11.5956 4.06177,1.07282 128.21461,-1.17144 130.12516,-2.35223 0.52885,-0.32685 1.004,-3.61499 1.26102,-8.72639 0.22681,-4.51106 0.70203,-8.76501 1.05604,-9.45322 1.10385,-2.14596 4.85029,-3.62232 8.08952,-3.18785 3.28395,0.44047 6.17126,3.11799 6.18756,5.73799 0.022,3.53373 0.9349,4.90501 4.45188,6.6872 5.01263,2.54009 5.60818,4.32723 5.60818,16.82901 0,12.53844 -0.58756,14.28487 -5.67291,16.86181 -3.05677,1.54898 -3.74024,2.27761 -4.38598,4.6757 -1.12259,4.16897 -3.81672,6.01919 -8.16288,5.60595 -5.58944,-0.53147 -6.33824,-1.77212 -7.12921,-11.812 -0.36824,-4.67408 -0.92853,-8.76961 -1.24508,-9.10118 -0.31655,-0.33157 -30.55167,-0.78665 -67.18914,-1.01129 l -66.61359,-0.40843 v 9.06304 c 0,8.43017 -0.11597,9.19787 -1.6607,10.99373 -2.24633,2.61151 -7.95257,3.28833 -10.47861,1.24287 z"
     id="path1012"
     inkscape:connector-curvature="0" />
  <path
     style="opacity:1;fill:#6e6faa;fill-opacity:0.99462364;stroke:#e4b4b0;stroke-width:0.71927708;stroke-opacity:0.22758011"
     d="m 164.77154,356.16517 c -1.01486,-0.80137 -2.44119,-2.77869 -3.16961,-4.39404 -0.91236,-2.02327 -2.39646,-3.59666 -4.77027,-5.05727 -4.6382,-2.85392 -5.13579,-4.75382 -4.83744,-18.47043 0.26364,-12.12091 0.53787,-12.86393 5.63156,-15.2582 2.11657,-0.99488 2.7285,-1.84969 3.84263,-5.36777 1.00739,-3.18103 1.86979,-4.51655 3.59639,-5.56935 2.90239,-1.76976 5.97189,-1.75988 8.90524,0.0286 2.73869,1.66986 2.91845,2.34894 3.27942,12.38901 0.18802,5.22954 0.60298,8.08859 1.29545,8.92568 0.95257,1.1515 4.5039,1.19607 54.60497,0.68534 58.8293,-0.5997 76.51426,-1.10397 77.62329,-2.21335 0.40267,-0.40279 0.95702,-4.43528 1.2319,-8.96109 0.43719,-7.19821 0.70254,-8.43149 2.11878,-9.84774 1.99345,-1.99344 4.5918,-2.69711 7.76273,-2.10223 3.08861,0.57942 4.72294,2.41481 5.59116,6.27897 0.84623,3.76631 1.53967,4.64264 5.11849,6.46842 4.16355,2.12408 4.84883,4.44873 4.84883,16.44842 0,12.13944 -0.62336,14.15676 -5.1378,16.62685 -2.23054,1.22045 -3.5762,2.63659 -4.6684,4.9129 -2.08051,4.33612 -4.05591,5.79278 -7.85566,5.79278 -2.20061,0 -3.67322,-0.47847 -5.00909,-1.62754 -1.73169,-1.48954 -1.95697,-2.32815 -2.65687,-9.89006 -0.4206,-4.54439 -1.12658,-8.65748 -1.56883,-9.14022 -0.61524,-0.67156 -16.38721,-0.99478 -67.15312,-1.37621 l -66.34902,-0.49852 v 9.06834 c 0,8.43568 -0.11586,9.20302 -1.6607,10.99901 -2.2945,2.66751 -7.92013,3.27685 -10.61403,1.14965 z"
     id="path1014"
     inkscape:connector-curvature="0" />
  <path
     style="opacity:1;fill:#6e6faa;fill-opacity:0.99462364;stroke:#e4b4b0;stroke-width:0.71927708;stroke-opacity:0.22758011"
     d="m 164.96897,356.35428 c -0.88453,-0.61955 -2.26206,-2.40807 -3.06119,-3.97449 -0.80731,-1.58246 -3.03552,-3.985 -5.01428,-5.4066 -4.75091,-3.41319 -5.22134,-5.21009 -4.91109,-18.7589 0.27654,-12.07616 0.51021,-12.70825 5.67216,-15.34285 2.10199,-1.07283 2.7695,-2.00782 3.8258,-5.35877 0.96823,-3.07161 1.83622,-4.39863 3.5676,-5.45433 2.91842,-1.77949 5.98372,-1.77316 8.92207,0.0184 2.71692,1.65658 2.86948,2.22635 3.35671,12.5369 0.20382,4.31309 0.72792,8.19718 1.16467,8.63133 0.5656,0.56222 15.32181,0.72497 51.2826,0.56562 58.45979,-0.25905 80.1799,-0.87328 81.05685,-2.29223 0.32198,-0.52097 0.7945,-3.89026 1.05003,-7.48732 0.67259,-9.46771 0.94925,-10.41428 3.51503,-12.02641 1.66235,-1.04449 3.10788,-1.34016 5.40651,-1.10587 3.87086,0.39453 5.73586,2.15142 6.6627,6.2765 0.85929,3.82443 1.54323,4.69409 5.13109,6.52449 4.11998,2.10185 4.8496,4.49424 4.84482,15.88586 -0.005,12.70458 -0.49688,14.30408 -5.34977,17.40844 -2.82564,1.80754 -4.07263,3.14235 -4.69372,5.02427 -1.17643,3.56461 -3.82787,5.46238 -7.63167,5.46238 -2.1856,0 -3.64637,-0.47724 -4.95363,-1.61837 -1.66046,-1.44944 -1.95494,-2.50307 -2.82106,-10.0936 -0.53189,-4.66137 -1.19879,-8.7073 -1.482,-8.99096 -0.61071,-0.61166 -52.58263,-1.39957 -99.83673,-1.51355 l -33.6262,-0.0811 v 8.67861 c 0,4.77324 -0.33327,9.30134 -0.7406,10.06244 -1.72772,3.22827 -8.21255,4.61833 -11.3367,2.4301 z"
     id="path1016"
     inkscape:connector-curvature="0" />
  <path
     style="opacity:1;fill:#6e6faa;fill-opacity:0.99462364;stroke:#e4b4b0;stroke-width:0.71927708;stroke-opacity:0.22758011"
     d="m 165.05399,356.41383 c -0.83776,-0.58679 -2.37391,-2.51852 -3.41366,-4.29272 -1.03975,-1.7742 -3.32891,-4.2155 -5.08701,-5.4251 -4.36479,-3.00306 -4.87689,-5.08869 -4.57091,-18.61588 l 0.2488,-10.99896 2.27131,-1.91799 c 1.24922,-1.0549 3.08234,-2.47841 4.0736,-3.16336 1.05674,-0.7302 2.30612,-2.76229 3.02028,-4.91242 1.97396,-5.94305 7.30429,-8.10154 12.37364,-5.01064 2.68313,1.63597 2.84188,2.19639 3.42779,12.10041 0.24096,4.07302 0.61874,7.87619 0.8395,8.45151 0.34587,0.9013 7.18258,1.04313 49.41511,1.02515 45.40175,-0.0193 82.06202,-0.77985 83.0041,-1.72193 0.21764,-0.21765 0.80147,-4.35386 1.29739,-9.1916 0.77962,-7.60512 1.11782,-8.97089 2.4982,-10.08866 2.11139,-1.70969 4.48587,-2.25242 7.43445,-1.69926 3.09791,0.58116 4.35683,2.02391 5.9759,6.84844 1.08669,3.23815 1.80298,4.1742 4.188,5.47292 4.881,2.65786 5.49184,4.70609 5.24686,17.59373 -0.23812,12.52718 -0.543,13.43691 -5.53145,16.50536 -1.7524,1.07792 -3.34879,2.84066 -4.11858,4.54774 -1.70154,3.77334 -4.14683,5.56015 -7.60919,5.56015 -5.80388,0 -6.84318,-1.57799 -8.18272,-12.42401 -0.53722,-4.34978 -1.15254,-8.08446 -1.36738,-8.29929 -0.5153,-0.5153 -64.64957,-1.46501 -103.0523,-1.52602 l -30.38945,-0.0483 v 8.67861 c 0,4.77324 -0.33327,9.30134 -0.7406,10.06244 -1.70397,3.18389 -8.20636,4.62267 -11.25168,2.48965 z"
     id="path1018"
     inkscape:connector-curvature="0" />
  <path
     style="opacity:1;fill:#6e6faa;fill-opacity:0.99462364;stroke:#e4b4b0;stroke-width:0.71927708;stroke-opacity:0.22758011"
     d="m 165.11951,356.45972 c -0.80173,-0.56156 -2.39563,-2.50487 -3.542,-4.31847 -1.14637,-1.81361 -3.3628,-4.18346 -4.9254,-5.26634 -4.23766,-2.9367 -4.78054,-4.93793 -4.78054,-17.62249 0,-12.3498 0.19236,-12.95025 5.15169,-16.08094 1.80167,-1.13734 3.26353,-2.79988 3.92649,-4.46551 2.45763,-6.17457 4.44666,-8.04814 8.54411,-8.04814 2.35944,0 5.86924,1.78674 6.72597,3.42401 0.36012,0.68821 0.88752,5.06037 1.17201,9.7159 0.43696,7.15065 0.72208,8.57424 1.83675,9.17079 0.8244,0.44121 18.00239,0.69425 45.78214,0.67441 49.25343,-0.0352 84.10732,-0.84388 85.24126,-1.97782 0.40166,-0.40166 1.13281,-4.43483 1.62478,-8.9626 0.49197,-4.52778 1.12598,-8.60689 1.40892,-9.0647 1.09249,-1.76767 4.96299,-3.13934 7.78888,-2.76031 3.59535,0.48223 5.43647,2.17182 6.37098,5.8466 0.92072,3.62056 1.65788,4.57082 5.46611,7.0463 3.89466,2.53167 4.52538,4.81431 4.52538,16.37778 0,11.78729 -0.54521,13.61456 -5.02181,16.83068 -1.97183,1.41662 -4.20011,3.8205 -5.00638,5.40092 -1.88311,3.6912 -3.97965,5.10093 -7.58608,5.10093 -5.61712,0 -6.84945,-2.08023 -8.30265,-14.01526 -0.4328,-3.55457 -0.9157,-6.59165 -1.07312,-6.74906 -0.40542,-0.40543 -74.62138,-1.44474 -106.60766,-1.49291 l -26.79307,-0.0404 v 8.67861 c 0,4.77324 -0.33327,9.30134 -0.7406,10.06244 -1.68535,3.14909 -8.20148,4.62609 -11.18616,2.53554 z"
     id="path1020"
     inkscape:connector-curvature="0" />
  <path
     style="opacity:1;fill:#6e6faa;fill-opacity:0.99462364;stroke:#e4b4b0;stroke-width:0.71927708;stroke-opacity:0.22758011"
     d="m 163.81783,354.84597 c -1.22981,-1.44912 -4.11964,-4.52366 -6.42184,-6.83233 -2.30221,-2.30867 -4.48701,-5.24775 -4.85512,-6.53128 -0.88684,-3.0922 -0.86108,-21.52525 0.0333,-23.8778 0.38646,-1.01647 2.12506,-2.85072 3.86355,-4.07613 2.27722,-1.60513 3.71126,-3.42013 5.12955,-6.49224 2.78012,-6.02191 6.92236,-7.86446 11.89696,-5.292 2.98911,1.54573 3.35651,2.62739 3.93145,11.5745 0.28223,4.39206 0.79258,8.438 1.13411,8.99097 1.25601,2.03364 129.66219,1.41542 131.71174,-0.63414 0.34875,-0.34875 1.06942,-4.37688 1.60148,-8.95141 0.53207,-4.57453 1.19008,-8.67763 1.46224,-9.118 1.07467,-1.73886 4.96413,-3.10485 7.76927,-2.7286 3.65418,0.49013 5.25178,2.0133 6.70699,6.39452 0.9372,2.82165 1.91882,4.09506 4.69316,6.08823 4.60301,3.30693 5.17305,5.48807 4.84625,18.543 -0.2787,11.13382 -0.6735,12.36024 -4.80787,14.93531 -1.32797,0.82712 -3.51682,3.22708 -4.86411,5.33323 -2.85882,4.46906 -4.1515,5.30892 -8.17126,5.30892 -4.41082,0 -6.11873,-2.07723 -7.1479,-8.69364 -0.45619,-2.93274 -1.06305,-6.7888 -1.34857,-8.56901 l -0.51913,-3.23674 -9.70522,-0.45279 c -5.33787,-0.24903 -35.35644,-0.69665 -66.70793,-0.9947 l -57.00271,-0.54192 v 8.77422 c 0,4.82582 -0.33327,9.39694 -0.7406,10.15804 -1.04386,1.95046 -4.47455,3.55654 -7.597,3.55654 -2.17012,0 -3.06306,-0.48103 -4.89084,-2.63475 z"
     id="path1022"
     inkscape:connector-curvature="0" />
  <path
     style="opacity:1;fill:#6e6faa;fill-opacity:0.99462364;stroke:#e4b4b0;stroke-width:0.71927708;stroke-opacity:0.22758011"
     d="m 195.94146,470.81592 c -4.14835,-1.86862 -5.22318,-4.69657 -5.22624,-13.75062 l -0.003,-7.94735 4.13585,-2.27331 c 2.27471,-1.25033 5.83513,-3.1481 7.91204,-4.21726 l 3.77621,-1.94394 0.01,-6.17696 c 0.0147,-9.21712 0.11432,-9.41371 4.77247,-9.41371 8.82709,0 11.22127,2.79124 11.64049,13.57104 l 0.29001,7.45718 4.77041,-0.42834 c 2.62373,-0.23558 10.75839,-0.80994 18.07704,-1.27634 14.21599,-0.90596 16.54337,-1.35545 16.54337,-3.195 0,-1.01506 0.6895,-1.10859 5.21476,-0.70741 2.86812,0.25427 6.42854,0.63924 7.91205,0.8555 l 2.69729,0.39319 v -3.89937 c 0,-2.14465 0.15854,-4.0579 0.3523,-4.25166 0.19377,-0.19377 3.51143,0.0643 7.37259,0.57351 3.86116,0.50919 7.26305,0.93746 7.55975,0.95169 0.96332,0.0462 0.6161,29.68549 -0.37024,31.60475 -1.97663,3.84617 -4.28661,4.71666 -13.27344,5.00194 -9.68296,0.30738 -12.99328,-0.44785 -15.61385,-3.56223 -1.66812,-1.98244 -1.85121,-2.79925 -1.85121,-8.2587 v -6.05866 h -19.6877 -19.6877 l -0.3296,5.69357 c -0.35537,6.13871 -1.3939,8.5005 -4.68744,10.65996 -2.65323,1.73964 -18.81062,2.17317 -22.30634,0.59853 z"
     id="path1024"
     inkscape:connector-curvature="0" />
  <path
     style="opacity:1;fill:#6e6faa;fill-opacity:0.99462364;stroke:#e4b4b0;stroke-width:0.71927708;stroke-opacity:0.22758011"
     d="m 267.49536,440.38349 -4.85512,-0.25163 v -4.653 c 0,-4.29399 0.18983,-4.86029 2.46037,-7.33972 l 2.46038,-2.68673 9.47704,-0.23836 c 6.29813,-0.1584 10.18249,0.0538 11.5801,0.63276 2.8765,1.19148 5.67031,4.69256 5.67031,7.10578 0,1.97362 -0.037,1.9896 -3.41657,1.476 -1.87911,-0.28557 -5.43953,-0.73882 -7.91205,-1.00721 l -4.49548,-0.48799 v 3.99174 3.99174 l -3.05693,-0.14088 c -1.68131,-0.0775 -5.24173,-0.25411 -7.91205,-0.3925 z"
     id="path1026"
     inkscape:connector-curvature="0" />
  <path
     style="opacity:1;fill:#6e6faa;fill-opacity:0.99462364;stroke:#e4b4b0;stroke-width:0.71927708;stroke-opacity:0.22758011"
     d="m 190.71522,440.32678 c 0.002,-7.06303 0.22629,-8.76759 1.40675,-10.70361 1.97331,-3.23634 4.89841,-4.53027 10.2431,-4.5311 l 4.5312,-7e-4 -0.22454,7.37329 c -0.2588,8.49828 0.42696,7.57785 -9.60873,12.89706 l -6.35047,3.36593 z"
     id="path1028"
     inkscape:connector-curvature="0" />
  <path
     style="opacity:1;fill:#6e6faa;fill-opacity:0.99462364;stroke:#e4b4b0;stroke-width:0.71927708;stroke-opacity:0.22758011"
     d="m 195.29196,470.46617 c -4.53613,-2.76601 -4.57943,-2.97274 -4.57943,-21.86614 0,-14.60469 0.17585,-17.46913 1.17641,-19.16295 2.20951,-3.7404 4.15804,-4.30749 14.76351,-4.29666 8.35969,0.009 9.98529,0.2028 12.01218,1.43542 3.05415,1.85734 4.41537,5.27357 4.41537,11.08118 v 4.6984 h 19.32807 19.32806 l 0.32319,-5.58284 c 0.58653,-10.13207 2.76043,-11.67981 16.40502,-11.67981 10.33492,0 12.43341,0.58049 14.81819,4.09908 1.24549,1.83765 1.36554,3.50359 1.36554,18.94942 0,18.77349 -0.12857,19.36004 -4.89419,22.32722 -2.05312,1.27831 -3.34987,1.40905 -12.14357,1.22439 -9.79736,-0.20573 -9.85568,-0.21698 -12.05244,-2.32368 -2.6045,-2.49771 -3.6274,-5.69895 -3.63289,-11.3695 l -0.004,-4.13584 H 242.50048 223.08 v 5.22598 c 0,6.22774 -1.4507,9.4956 -5.07929,11.44163 -3.65636,1.96093 -19.46034,1.91548 -22.70875,-0.0653 z m 50.44527,-26.28542 11.50843,-0.90819 -17.08283,-0.0989 c -16.70175,-0.0967 -17.08283,-0.0665 -17.08283,1.35645 0,1.37436 0.31034,1.43043 5.5744,1.00712 3.06592,-0.24655 10.75319,-0.85695 17.08283,-1.35645 z m 32.53231,-2.97917 c -0.23902,-0.23901 -0.85939,-0.26456 -1.37862,-0.0568 -0.57379,0.22962 -0.40336,0.40005 0.43457,0.43457 0.75823,0.0312 1.18306,-0.13877 0.94405,-0.37778 z m -71.73291,-1.00399 c 0,-0.3956 -0.14274,-0.71928 -0.31719,-0.71928 -0.17445,0 -0.51723,0.32368 -0.76173,0.71928 -0.24449,0.3956 -0.10176,0.71928 0.31719,0.71928 0.41895,0 0.76173,-0.32368 0.76173,-0.71928 z"
     id="path1030"
     inkscape:connector-curvature="0" />
  <path
     style="opacity:1;fill:#6e6faa;fill-opacity:0.99462364;stroke:#e4b4b0;stroke-width:0.71927708;stroke-opacity:0.22758011"
     d="m 195.29196,470.46617 c -4.53613,-2.76601 -4.57943,-2.97274 -4.57943,-21.86614 0,-14.60469 0.17585,-17.46913 1.17641,-19.16295 2.21836,-3.75537 4.22124,-4.34457 14.75867,-4.34162 8.3591,0.002 9.90686,0.19023 11.98019,1.4543 3.09048,1.88421 4.4522,5.28142 4.4522,11.10726 v 4.6984 h 19.42048 19.42049 l 0.0406,-4.49548 c 0.0542,-6.00842 1.23236,-9.12745 4.20162,-11.12389 2.24982,-1.51269 3.22739,-1.64328 12.30119,-1.64328 9.07379,0 10.05136,0.13059 12.30116,1.64328 1.39644,0.93893 2.81199,2.71166 3.30252,4.13584 1.06565,3.09401 1.24237,30.14521 0.22096,33.82201 -0.3909,1.4071 -1.70504,3.51098 -2.92033,4.6753 l -2.20962,2.11694 H 278.4751 c -10.39704,0 -10.73632,-0.0483 -12.63282,-1.79819 -2.80017,-2.58371 -3.92127,-5.76458 -3.92127,-11.12569 v -4.6984 H 242.50048 223.08 v 5.22598 c 0,6.22774 -1.4507,9.4956 -5.07929,11.44163 -3.65636,1.96093 -19.46034,1.91548 -22.70875,-0.0653 z m 51.88382,-26.6389 c 3.94148,-0.42925 2.11878,-0.57051 -8.39267,-0.65045 -13.42867,-0.10213 -15.70311,0.11774 -15.70311,1.518 0,0.76326 13.626,0.27267 24.09578,-0.86755 z"
     id="path1032"
     inkscape:connector-curvature="0" />
  <path
     style="opacity:1;fill:#6e6faa;fill-opacity:0.99462364;stroke:#e4b4b0;stroke-width:0.71927708;stroke-opacity:0.22758011"
     d="m 195.29196,470.46617 c -4.53613,-2.76601 -4.57943,-2.97274 -4.57943,-21.86614 0,-14.60469 0.17585,-17.46913 1.17641,-19.16295 2.21836,-3.75537 4.22124,-4.34457 14.75867,-4.34162 8.3591,0.002 9.90686,0.19023 11.98019,1.4543 3.09048,1.88421 4.4522,5.28142 4.4522,11.10726 v 4.6984 h 19.42048 19.42049 l 0.0406,-4.49548 c 0.0542,-6.00842 1.23236,-9.12745 4.20162,-11.12389 2.24982,-1.51269 3.22739,-1.64328 12.30119,-1.64328 9.07379,0 10.05136,0.13059 12.30116,1.64328 1.39644,0.93893 2.81199,2.71166 3.30252,4.13584 1.06565,3.09401 1.24237,30.14521 0.22096,33.82201 -0.3909,1.4071 -1.70504,3.51098 -2.92033,4.6753 l -2.20962,2.11694 H 278.4751 c -10.39704,0 -10.73632,-0.0483 -12.63282,-1.79819 -2.80017,-2.58371 -3.92127,-5.76458 -3.92127,-11.12569 v -4.6984 H 242.50048 223.08 v 5.22598 c 0,6.22774 -1.4507,9.4956 -5.07929,11.44163 -3.65636,1.96093 -19.46034,1.91548 -22.70875,-0.0653 z m 46.81292,-26.76285 c 0.79395,-0.7304 -8.89894,-0.83884 -14.5294,-0.16254 -2.07691,0.24946 -3.7762,0.74127 -3.7762,1.0929 0,0.80952 17.3742,-0.0735 18.3056,-0.93036 z"
     id="path1034"
     inkscape:connector-curvature="0" />
  <path
     style="opacity:1;fill:#6e6faa;fill-opacity:0.99462364;stroke:#e4b4b0;stroke-width:0.71927708;stroke-opacity:0.22758011"
     d="m 195.29196,470.46617 c -4.53998,-2.76835 -4.5799,-2.96014 -4.57469,-21.97712 0.006,-23.47332 -0.0901,-23.33075 15.81936,-23.3681 8.498,-0.02 10.00748,0.15842 12.09117,1.42881 3.09048,1.88421 4.4522,5.28142 4.4522,11.10726 v 4.6984 h 19.42048 19.42049 l 0.0406,-4.49548 c 0.0542,-6.00842 1.23236,-9.12745 4.20162,-11.12389 2.24982,-1.51269 3.22739,-1.64328 12.30119,-1.64328 9.07379,0 10.05136,0.13059 12.30116,1.64328 1.39644,0.93893 2.81199,2.71166 3.30252,4.13584 1.07818,3.1304 1.23682,30.165 0.19893,33.90177 -0.4164,1.49919 -1.84825,3.61756 -3.31663,4.90681 l -2.58389,2.26869 -10.28987,-0.23151 c -9.82053,-0.22095 -10.37866,-0.31352 -12.23652,-2.0297 -2.79842,-2.58501 -3.91907,-5.76638 -3.91907,-11.12569 v -4.6984 H 242.50048 223.08 v 5.22598 c 0,6.22774 -1.4507,9.4956 -5.07929,11.44163 -3.65636,1.96093 -19.46034,1.91548 -22.70875,-0.0653 z m 40.19557,-26.4832 c -2.07691,-0.14529 -5.4755,-0.14529 -7.55241,0 -2.07691,0.1453 -0.37762,0.26418 3.77621,0.26418 4.15382,0 5.85311,-0.11888 3.7762,-0.26418 z"
     id="path1036"
     inkscape:connector-curvature="0" />
  <path
     style="opacity:1;fill:#6e6faa;fill-opacity:0.99462364;stroke:#e4b4b0;stroke-width:0.71927708;stroke-opacity:0.22758011"
     d="m 196.10711,470.83699 c -1.18681,-0.52387 -2.80518,-1.67739 -3.59639,-2.56337 -1.34123,-1.50189 -1.45312,-2.79582 -1.6539,-19.12613 -0.2971,-24.16494 -0.36839,-24.05658 15.82391,-24.05203 8.32588,0.002 9.87483,0.19089 11.94707,1.4543 3.09048,1.88421 4.4522,5.28142 4.4522,11.10726 v 4.6984 h 19.42048 19.42049 l 0.0406,-4.49548 c 0.0542,-6.00842 1.23236,-9.12745 4.20162,-11.12389 2.24315,-1.5082 3.23643,-1.64328 12.08364,-1.64328 15.96887,0 16.30783,0.41747 16.63715,20.49046 0.29487,17.9734 0.0383,19.80257 -3.29416,23.49128 l -2.59372,2.87094 -10.60466,-0.22965 c -10.15844,-0.21999 -10.68658,-0.30532 -12.55133,-2.02785 -2.79845,-2.585 -3.9191,-5.76636 -3.9191,-11.12569 v -4.6984 H 242.50048 223.08 v 5.22598 c 0,6.22774 -1.4507,9.4956 -5.07929,11.44163 -1.99459,1.06971 -4.0591,1.30907 -11.09322,1.28616 -5.5483,-0.0181 -9.41511,-0.36917 -10.80038,-0.98064 z"
     id="path1038"
     inkscape:connector-curvature="0" />
  <path
     style="opacity:1;fill:#6e6faa;fill-opacity:0.99462364;stroke:#e4b4b0;stroke-width:0.71927708;stroke-opacity:0.22758011"
     d="m 223.16169,245.45331 c -0.38117,-1.48351 -1.7363,-7.44488 -3.01141,-13.24749 l -2.31837,-10.5502 -6.90638,-0.46203 c -14.55342,-0.97361 -21.05754,-2.28182 -23.73187,-4.77334 -2.0345,-1.89543 -1.67209,-4.6984 1.39239,-10.7691 1.88558,-3.73531 3.58198,-6.16251 11.63139,-16.64208 1.43532,-1.86865 3.12968,-5.18632 3.76525,-7.37259 0.63556,-2.18627 1.55112,-4.01231 2.03457,-4.05786 1.83558,-0.17297 3.82662,0.26958 5.79904,1.28894 1.63322,0.84406 1.95725,1.39715 1.61574,2.75787 -0.23496,0.93614 -0.10233,1.90285 0.29472,2.14824 1.22301,0.75586 0.80179,1.68825 -0.87174,1.92962 -2.28504,0.32956 -4.63258,4.24556 -6.79232,11.33046 -1.4562,4.77699 -2.48422,6.7683 -4.57364,8.85932 -1.48238,1.48351 -2.42995,2.69729 -2.10571,2.69729 0.32424,0 4.85117,-1.49764 10.05984,-3.3281 10.51566,-3.69547 14.32059,-3.89899 18.98606,-1.01558 2.53231,1.56506 5.83198,1.88912 7.59774,0.74619 0.90284,-0.58438 0.73828,-0.97312 -1.00831,-2.38198 -1.72918,-1.39481 -2.00149,-2.02525 -1.58741,-3.67509 0.27491,-1.09531 0.17873,-2.37838 -0.21372,-2.85126 -1.1969,-1.44217 0.85944,-9.60726 2.94471,-11.69254 2.97972,-2.97972 8.88522,-3.47061 15.75949,-1.31 1.37096,0.4309 2.80644,3.33527 2.80644,5.6782 0,1.12902 0.53107,1.82903 1.61838,2.13323 1.60059,0.4478 1.59405,0.47505 -0.59578,2.48088 -1.64704,1.50863 -2.42803,3.09305 -3.04916,6.18587 -1.17792,5.86527 -0.19644,6.76796 4.34683,3.99793 4.61707,-2.81503 15.42451,-1.61062 23.85483,2.65845 3.11074,1.57526 3.45227,1.62841 2.95108,0.45924 -0.31173,-0.7272 -1.29032,-3.74975 -2.17462,-6.71676 -1.36583,-4.5826 -1.86416,-5.42696 -3.31072,-5.60967 -3.12036,-0.39413 -3.73768,-0.79099 -2.86535,-1.84207 0.60485,-0.7288 0.4505,-1.27548 -0.63827,-2.2608 -1.90434,-1.72341 -1.84384,-4.40413 0.12316,-5.45684 0.85755,-0.45894 3.16501,-0.87492 5.1277,-0.9244 3.52091,-0.0888 3.58157,-0.0529 4.54564,2.68996 0.53741,1.52896 2.06802,3.98743 3.40137,5.46328 3.23191,3.57735 8.15977,10.89131 9.8571,14.63001 3.82875,8.43353 -0.0434,12.09268 -14.95667,14.13399 -3.06806,0.41995 -7.18706,0.84251 -9.15335,0.93902 l -3.57506,0.17547 -2.6913,11.50843 c -1.48021,6.32964 -2.87159,12.2367 -3.09196,13.12681 l -0.40065,1.61837 h -20.09833 -20.09833 z"
     id="path1042"
     inkscape:connector-curvature="0" />
</svg>
