<svg id="Layer_1" data-name="Layer 1" xmlns="http://www.w3.org/2000/svg" xmlns:xlink="http://www.w3.org/1999/xlink" viewBox="0 0 678.54 520.9"><defs><linearGradient id="linear-gradient" x1="331.63" y1="122.7" x2="331.63" y2="337.59" gradientUnits="userSpaceOnUse"><stop offset="0.12" stop-color="#010101" stop-opacity="0"/><stop offset="0.95" stop-color="#010101"/></linearGradient><linearGradient id="linear-gradient-2" x1="553.77" y1="459.59" x2="578.41" y2="459.59" gradientUnits="userSpaceOnUse"><stop offset="0" stop-color="#e5c6d6"/><stop offset="0.42" stop-color="#ead4d0"/><stop offset="1" stop-color="#f0e9cb"/></linearGradient><linearGradient id="linear-gradient-3" x1="561.97" y1="479.92" x2="582.98" y2="318.34" xlink:href="#linear-gradient"/><linearGradient id="linear-gradient-4" x1="546.35" y1="386.6" x2="668.75" y2="296.31" xlink:href="#linear-gradient"/><linearGradient id="linear-gradient-5" x1="578.24" y1="180.49" x2="590.96" y2="176.45" xlink:href="#linear-gradient"/><linearGradient id="linear-gradient-6" x1="557.01" y1="207.94" x2="571.61" y2="207.94" xlink:href="#linear-gradient-2"/><linearGradient id="linear-gradient-7" x1="548.35" y1="284.03" x2="620.46" y2="191.94" xlink:href="#linear-gradient"/><linearGradient id="linear-gradient-8" x1="569.84" y1="210.14" x2="553.38" y2="167.82" gradientUnits="userSpaceOnUse"><stop offset="0" stop-color="#010101" stop-opacity="0"/><stop offset="0.95" stop-color="#010101"/></linearGradient><linearGradient id="linear-gradient-9" x1="565.35" y1="192.6" x2="587.1" y2="192.6" xlink:href="#linear-gradient-2"/><linearGradient id="linear-gradient-10" x1="522.93" y1="180.19" x2="609.78" y2="219.77" xlink:href="#linear-gradient"/><linearGradient id="linear-gradient-11" x1="599.38" y1="249.78" x2="624.12" y2="249.78" xlink:href="#linear-gradient-2"/><linearGradient id="linear-gradient-12" x1="551.76" y1="411.14" x2="573.48" y2="411.14" xlink:href="#linear-gradient-2"/><linearGradient id="linear-gradient-13" x1="140.42" y1="115.82" x2="139.82" y2="160.35" xlink:href="#linear-gradient"/><linearGradient id="linear-gradient-14" x1="155.57" y1="115.82" x2="154.96" y2="160.35" xlink:href="#linear-gradient"/><linearGradient id="linear-gradient-15" x1="170.72" y1="115.82" x2="170.11" y2="160.35" xlink:href="#linear-gradient"/></defs><title>Facebook ad</title><path d="M504.51,545.66c34-2.42,68.65-6.46,99.24-21.45s56.74-43,61-76.74-13.28-67.06-10.74-101c2.25-29.93,19.84-56.59,25.59-86.05,6.89-35.26-4.7-73.6-30-99.14C630.09,141.54,604,129.9,578.52,118.7L431.76,54.13c-21.23-9.34-42.7-18.75-65.5-23C339.05,26,311.07,28.5,283.5,31c-33.83,3-69.06,6.54-97.87,24.52C155,74.6,135.82,107.5,108.38,131c-30.15,25.8-70.84,40.89-91.54,74.75-23,37.58-13.77,86.3,2.07,127.39s37.92,81.38,39,125.41c.92,37.62-3.23,67.61,38.58,72.12,43.42,4.69,87.67,7.25,131.3,10.65C319.8,548.44,412.33,552.22,504.51,545.66Z" transform="translate(-3.02 -28.15)" fill="#15646a" opacity="0.24" style="isolation:isolate"/><path d="M86.36,488.15c3.44,11.6,18.48,14.11,30.57,14.5L476.12,514c25.39.8,50.89,1.6,76.13-1.33A259,259,0,0,0,629.81,491c3.94-1.81,8.26-4.2,9.33-8.4,1.74-6.77-5.93-12-12.57-14.18-20.47-6.66-42.49-6.07-64-5.49C425.46,466.67,286,472.84,149,465.53,133.07,464.68,76.65,455.45,86.36,488.15Z" transform="translate(-3.02 -28.15)" fill="#15646a" opacity="0.24" style="isolation:isolate"/><path d="M542.1,173v1.38H121.17V173a23.66,23.66,0,0,1,23.67-23.67H518.43A23.66,23.66,0,0,1,542.1,173Z" transform="translate(-3.02 -28.15)" fill="#15646a"/><path d="M542.1,173v1.38H121.17V173a23.66,23.66,0,0,1,23.67-23.67H518.43A23.66,23.66,0,0,1,542.1,173Z" transform="translate(-3.02 -28.15)" fill="url(#linear-gradient)"/><rect x="118.15" y="146.26" width="420.93" height="304.55" fill="#fff"/><path d="M528,216.36c-1.13,4.28-2.16,8.94-1.64,13.52.41,3.53,1.69,6.6,2.52,9.93,1.73,7,1.37,14.83,1.08,22.36a917.18,917.18,0,0,0,1.14,93.52,66.46,66.46,0,0,1,.15,10.17,74.07,74.07,0,0,1-1.75,9.41,158.27,158.27,0,0,0-3.19,21.6c-.53,6.78-.61,14,1.23,20.11,2.42,8,7.61,12.67,12.69,15.95,1.24-4.3,1.47-9.17,1.67-13.91,2.93-70.8,2.43-142-1.5-212.64-.33-6,4.48-24.43-.28-16.23C536.76,195.84,529.83,209.24,528,216.36Z" transform="translate(-3.02 -28.15)" fill="#15646a" opacity="0.24" style="isolation:isolate"/><path d="M548.93,456.17a9.09,9.09,0,0,0-1.8,3.86,23.62,23.62,0,0,0,.74,13.87c.51,1.39,1.78,3,3.12,2.37a10.5,10.5,0,0,0,1-.66,3.93,3.93,0,0,1,3.06.1c10.15,3.13,21.15,4.3,31.42,1.56,1.35-.36,2.86-1,3.26-2.3.45-1.52-.81-3-2.07-3.93-6-4.55-14-5.45-21-8.11a43,43,0,0,1-9.85-5.27C554.18,455.83,551.82,452.88,548.93,456.17Z" transform="translate(-3.02 -28.15)" fill="#15646a"/><path d="M554.44,461.19a13.6,13.6,0,0,0,5.4,6.05,21.44,21.44,0,0,0,13.14,4,7.26,7.26,0,0,0,3.89-1.21,3.46,3.46,0,0,0,1.43-3.6,5.06,5.06,0,0,0-1-1.73c-3.32-4-7.61-7.58-9-12.61-.32-1.15-.54-2.46-1.5-3.17a4.34,4.34,0,0,0-2-.65c-2.92-.45-7.75-1.08-9.47,1.9A15,15,0,0,0,554.44,461.19Z" transform="translate(-3.02 -28.15)" fill="url(#linear-gradient-2)"/><path d="M563.27,349.59s3.23,51.3,1.21,55.75-10.91,44-10.91,44,10.91,6.46,14.54,4,18.59-60.19,18.59-60.19L594,358.08Z" transform="translate(-3.02 -28.15)" fill="#606161"/><path d="M563.17,348.43s3.23,51.3,1.21,55.74-10.91,44-10.91,44,10.91,6.47,14.54,4,18.58-60.18,18.58-60.18l7.28-35.15Z" transform="translate(-3.02 -28.15)" fill="url(#linear-gradient-3)"/><path d="M551.45,326.37s3.13,22.41,14.64,25.85,43.23,14.54,43.23,14.54-33.53,20.8-34.74,22.22-6.87,4.64-6.87,4.64l8,17.57s53-27.57,58.47-33,5.45-19.69,3-21.81S599,324.55,599,324.55Z" transform="translate(-3.02 -28.15)" fill="#606161"/><path d="M551.45,326.37s3.13,22.41,14.64,25.85,43.23,14.54,43.23,14.54-33.53,20.8-34.74,22.22-6.87,4.64-6.87,4.64l8,17.57s53-27.57,58.47-33,5.45-19.69,3-21.81S599,324.55,599,324.55Z" transform="translate(-3.02 -28.15)" fill="url(#linear-gradient-4)"/><rect x="619.31" y="224.65" width="3.48" height="24.99" rx="1.45" transform="matrix(0.94, 0.34, -0.34, 0.94, 114.63, -225.21)" fill="#15646a"/><path d="M590,176.63a14.24,14.24,0,0,1-3.24,12.26,6,6,0,0,1-2.69,1.9,4.91,4.91,0,0,1-5-1.8,10.32,10.32,0,0,1-2-5.13c-.75-5,0-11.92,3.5-15.85S589.41,173.87,590,176.63Z" transform="translate(-3.02 -28.15)" fill="#606161"/><path d="M590,176.63a14.24,14.24,0,0,1-3.24,12.26,6,6,0,0,1-2.69,1.9,4.91,4.91,0,0,1-5-1.8,10.32,10.32,0,0,1-2-5.13c-.75-5,0-11.92,3.5-15.85S589.41,173.87,590,176.63Z" transform="translate(-3.02 -28.15)" fill="url(#linear-gradient-5)"/><path d="M568.42,215.17c0,1.64-.06,3.66-1.51,4.43a3.87,3.87,0,0,1-1.59.33,9,9,0,0,1-5.38-1,7.08,7.08,0,0,1-2.93-6,17.63,17.63,0,0,1,1.63-6.69c1.48-3.64,3.35-7.3,6.52-9.62a3.37,3.37,0,0,1,1.68-.75c3.12-.21,5.1,6,4.72,8.38C571,208.1,568.54,211.15,568.42,215.17Z" transform="translate(-3.02 -28.15)" fill="url(#linear-gradient-6)"/><path d="M547.82,213.21s11.36-2.27,16.36,2.43,15.75,14.08,19.54,22.26,5.3,21.51,5.3,21.51l10,65.14s-40.6,6.36-47.57,1.82.91-48.17-2.12-54.54-13.94-40.9-9.09-49.38S547.82,213.21,547.82,213.21Z" transform="translate(-3.02 -28.15)" fill="#15646a"/><path d="M592.75,283.35s-14.54,14.94-25,9.69-12.52-22.62-12.52-22.62l-9.55-38.94L573,273.25l18.18.81Z" transform="translate(-3.02 -28.15)" fill="url(#linear-gradient-7)"/><path d="M557.21,226.69l25.14,28.48,16.06-7.57s8.79,10.3,8.79,13.93-25.76,21.82-29.69,18.18S549,248.81,546.6,244.57,541.45,221.85,557.21,226.69Z" transform="translate(-3.02 -28.15)" fill="#15646a"/><path d="M565.16,196.67s-2.57,9.5,1.44,14.19l2.12,1.06,2.84-7.62Z" transform="translate(-3.02 -28.15)" fill="url(#linear-gradient-8)"/><path d="M586.5,194.26a2.81,2.81,0,0,1,.58,1.65,1.9,1.9,0,0,1-.35.78c-1.73,2.63-4.53,4.35-6.5,6.8-1.38,1.7-2.6,3.91-4.76,4.26a6.12,6.12,0,0,1-3.91-1c-5.42-3.11-6.82-9.26-6-11.74s2-4.82,2.93-7.28c1.07-2.95,1.81-6.27,4.25-8.22a11.5,11.5,0,0,1,5.66-2,5.22,5.22,0,0,1,2.36.05c2.31.75,5,3.85,5.24,6.29C586.38,187.16,584.85,191.19,586.5,194.26Z" transform="translate(-3.02 -28.15)" fill="url(#linear-gradient-9)"/><path d="M578.53,186.66c-2.15,1.1-4.81.69-7,1.71-3.4,1.6-4.38,5.86-6.45,9-1.17,1.76-2.75,3.2-4.08,4.84-6.38,7.86-6.62,19.18-12.17,27.65a1.79,1.79,0,0,1-.68.71,1.86,1.86,0,0,1-.91.11,25.42,25.42,0,0,1-14-5.2,2.13,2.13,0,0,1-1-2.68c2.8-12.85,10.32-24.22,13.72-36.93.9-3.34,1.51-6.77,2.84-10a28.46,28.46,0,0,1,5.53-8.31,20.3,20.3,0,0,1,8.06-5.6c4.84-1.63,10.23-.51,14.86,1.64,5,2.3,8.32,5.9,7.64,11.61C584.44,179,582,184.89,578.53,186.66Z" transform="translate(-3.02 -28.15)" fill="#606161"/><path d="M578.53,186.66c-2.15,1.1-4.81.69-7,1.71-3.4,1.6-4.38,5.86-6.45,9-1.17,1.76-2.75,3.2-4.08,4.84-6.38,7.86-6.62,19.18-12.17,27.65a1.79,1.79,0,0,1-.68.71,1.86,1.86,0,0,1-.91.11,25.42,25.42,0,0,1-14-5.2,2.13,2.13,0,0,1-1-2.68c2.8-12.85,10.32-24.22,13.72-36.93.9-3.34,1.51-6.77,2.84-10a28.46,28.46,0,0,1,5.53-8.31,20.3,20.3,0,0,1,8.06-5.6c4.84-1.63,10.23-.51,14.86,1.64,5,2.3,8.32,5.9,7.64,11.61C584.44,179,582,184.89,578.53,186.66Z" transform="translate(-3.02 -28.15)" fill="url(#linear-gradient-10)"/><path d="M606.29,244.47a25.9,25.9,0,0,1,4.91-.77,45.6,45.6,0,0,0,8.48-2.53c1.17-.4,2.56-.74,3.54,0a2.62,2.62,0,0,1,.87,2.48,7.59,7.59,0,0,1-1,2.56l-3,5.54c-1,1.79-2,3.65-3.68,4.74-2.4,1.52-5.48,1.15-8.27,1.69a16.22,16.22,0,0,1-3.89.64c-3.62-.18-5.45-4.15-4.78-7.4C600.11,248.52,603.62,245.39,606.29,244.47Z" transform="translate(-3.02 -28.15)" fill="url(#linear-gradient-11)"/><path d="M563.9,398.58a6.41,6.41,0,0,0-1.91.09,4.58,4.58,0,0,0-1.87,1.41,38,38,0,0,0-5.72,7.2,23.56,23.56,0,0,0-2,16.41,1.56,1.56,0,0,0,.35.81c.57.54,1.49,0,2-.58l15.43-15.1,2.74-2.68a1.15,1.15,0,0,0,.21-1.76l-1.89-3.27a15.62,15.62,0,0,0-1.82-3.13c-.8-.8-1.24-.27-2.22.07A9.22,9.22,0,0,1,563.9,398.58Z" transform="translate(-3.02 -28.15)" fill="url(#linear-gradient-12)"/><path d="M554.15,397a36.4,36.4,0,0,0-9.93,1.83c-1.23.35-2.73,1.05-2.66,2.33S543,403,543.44,404a4.23,4.23,0,0,1-.28,3A37.11,37.11,0,0,0,541,421.45a22.37,22.37,0,0,0,5.32,13.42,5,5,0,0,0,3.51,2c1.7,0,3-1.54,3.72-3.08,2.14-4.58,1.21-9.92,1.22-15a37.75,37.75,0,0,1,2.93-14.68c.52-1.2,2.78-3.76,2.53-5.05C559.8,397.12,555.71,397.05,554.15,397Z" transform="translate(-3.02 -28.15)" fill="#15646a"/><rect x="135.12" y="170.49" width="391.82" height="272.26" fill="#fff"/><circle cx="140.17" cy="134.33" r="4.54" fill="url(#linear-gradient-13)"/><circle cx="155.32" cy="134.33" r="4.54" fill="url(#linear-gradient-14)"/><circle cx="170.47" cy="134.33" r="4.54" fill="url(#linear-gradient-15)"/><rect x="137.14" y="165.24" width="66.65" height="284.78" fill="#15646a" opacity="0.24" style="isolation:isolate"/><rect x="419.09" y="165.24" width="92.16" height="284.78" fill="#15646a" opacity="0.24" style="isolation:isolate"/><rect x="211.47" y="165.24" width="199.49" height="284.78" fill="#15646a" opacity="0.24" style="isolation:isolate"/><rect x="220.55" y="206.13" width="189.7" height="121.2" fill="#15646a" opacity="0.24" style="isolation:isolate"/><rect x="430.52" y="192.53" width="78.81" height="55.37" fill="#15646a" opacity="0.24" style="isolation:isolate"/><rect x="141.99" y="170.89" width="21.41" height="25.04" fill="#fff"/><rect x="338.3" y="181.6" width="12.85" height="14.33" fill="#fff"/><rect x="226.21" y="181.49" width="47.97" height="14.45" fill="#fff"/><rect x="216.52" y="201.69" width="189.43" height="118.48" fill="#fff"/><rect x="282.26" y="181.49" width="47.97" height="14.45" fill="#fff"/><rect x="141.99" y="201.49" width="54.52" height="2.71" fill="#fff"/><rect x="141.99" y="208.46" width="54.52" height="2.71" fill="#fff"/><rect x="141.99" y="215.43" width="54.52" height="2.71" fill="#fff"/><rect x="220.76" y="224.61" width="179.35" height="89.67" fill="#15646a" opacity="0.24" style="isolation:isolate"/><rect x="427.57" y="191.49" width="77.56" height="50.09" fill="#fff"/><g opacity="0.24" style="isolation:isolate"><path d="M450.92,244.64h-6.19l-.86,2.91h-5.56l6.63-17.64h5.94l6.63,17.64H451.8Zm-1.13-3.82-2-6.34-1.93,6.34Z" transform="translate(-3.02 -28.15)" fill="#15646a"/><path d="M459.32,229.91h8.1a9.55,9.55,0,0,1,3.86.65,6.2,6.2,0,0,1,2.44,1.86,7.9,7.9,0,0,1,1.4,2.83,13.14,13.14,0,0,1,.43,3.42,11.87,11.87,0,0,1-.64,4.39,7.27,7.27,0,0,1-1.79,2.61,5.79,5.79,0,0,1-2.46,1.4,12.59,12.59,0,0,1-3.24.48h-8.1Zm5.45,4v9.65h1.33a5.55,5.55,0,0,0,2.44-.39,2.59,2.59,0,0,0,1.13-1.32,8.36,8.36,0,0,0,.41-3.06c0-1.87-.31-3.15-.92-3.84a3.87,3.87,0,0,0-3-1Z" transform="translate(-3.02 -28.15)" fill="#15646a"/><path d="M477.47,241.71l5.18-.32a3.87,3.87,0,0,0,.69,1.92,2.86,2.86,0,0,0,2.4,1.08,2.64,2.64,0,0,0,1.8-.55,1.65,1.65,0,0,0,.63-1.27,1.59,1.59,0,0,0-.6-1.23,7,7,0,0,0-2.79-1,12,12,0,0,1-5.11-2.14,4.31,4.31,0,0,1-1.54-3.41,4.62,4.62,0,0,1,.79-2.57,5.14,5.14,0,0,1,2.37-1.9,11.06,11.06,0,0,1,4.33-.69,8.93,8.93,0,0,1,5.16,1.25,5.46,5.46,0,0,1,2.11,4l-5.14.3a2.72,2.72,0,0,0-.86-1.74,2.81,2.81,0,0,0-1.81-.54,2.18,2.18,0,0,0-1.43.41,1.22,1.22,0,0,0-.48,1,1,1,0,0,0,.4.75,4.38,4.38,0,0,0,1.82.66,23.23,23.23,0,0,1,5.13,1.55,5.42,5.42,0,0,1,2.25,2,5,5,0,0,1,.7,2.61,5.56,5.56,0,0,1-.94,3.13,5.85,5.85,0,0,1-2.62,2.17,10.52,10.52,0,0,1-4.25.74q-4.5,0-6.23-1.73A6.82,6.82,0,0,1,477.47,241.71Z" transform="translate(-3.02 -28.15)" fill="#15646a"/></g><path d="M275.67,307.39h-13.3l-1.85,6.26h-12l14.26-37.92h12.78l14.25,37.92H277.57Zm-2.43-8.21-4.19-13.62-4.14,13.62Z" transform="translate(-3.02 -28.15)" fill="#fff"/><path d="M293.72,275.73h17.41a20.87,20.87,0,0,1,8.32,1.39,13.55,13.55,0,0,1,5.24,4,16.58,16.58,0,0,1,3,6.08,28.25,28.25,0,0,1,.93,7.35,25.61,25.61,0,0,1-1.38,9.43,15.7,15.7,0,0,1-3.84,5.61,12.53,12.53,0,0,1-5.28,3,27.22,27.22,0,0,1-7,1H293.72Zm11.72,8.58V305h2.87a11.94,11.94,0,0,0,5.23-.83,5.55,5.55,0,0,0,2.43-2.84,17.73,17.73,0,0,0,.88-6.58q0-6-2-8.26c-1.32-1.48-3.49-2.22-6.53-2.22Z" transform="translate(-3.02 -28.15)" fill="#fff"/><path d="M332.74,301.1l11.15-.7a8.52,8.52,0,0,0,1.47,4.14,6.18,6.18,0,0,0,5.17,2.3,5.69,5.69,0,0,0,3.87-1.17,3.53,3.53,0,0,0,1.36-2.73,3.48,3.48,0,0,0-1.29-2.64c-.87-.77-2.87-1.51-6-2.2q-7.69-1.74-11-4.6a9.27,9.27,0,0,1-3.31-7.33,9.94,9.94,0,0,1,1.69-5.52,11.17,11.17,0,0,1,5.1-4.08,23.64,23.64,0,0,1,9.32-1.49q7.28,0,11.09,2.7t4.54,8.6l-11,.65a5.17,5.17,0,0,0-5.75-4.89A4.69,4.69,0,0,0,346,283a2.62,2.62,0,0,0-1,2.1,2.09,2.09,0,0,0,.85,1.63,9.4,9.4,0,0,0,3.93,1.4,49.11,49.11,0,0,1,11,3.35,11.58,11.58,0,0,1,4.84,4.2,10.68,10.68,0,0,1,1.51,5.62,12,12,0,0,1-2,6.73,12.59,12.59,0,0,1-5.63,4.66,22.69,22.69,0,0,1-9.14,1.6q-9.68,0-13.4-3.73A14.68,14.68,0,0,1,332.74,301.1Z" transform="translate(-3.02 -28.15)" fill="#fff"/><rect x="80.79" y="281.57" width="115.73" height="112.09" rx="12.3" fill="#15646a" opacity="0.24" style="isolation:isolate"/><rect x="74.13" y="274.3" width="115.73" height="112.09" rx="12.3" fill="#fff"/><path d="M148.81,390.43V370.81c0-.76,0-.76-.74-.76H135.79c-.74,0-.78,0-.78-.77V354.76c0-.75,0-.77.77-.77h12.28c.75,0,.75,0,.75-.76,0-3.88,0-7.75,0-11.62a22.84,22.84,0,0,1,2.4-10.43A17.62,17.62,0,0,1,163,322c3.62-.94,7.29-.8,10.95-.68,2.21.07,4.42.24,6.62.39,1.42.11,1.16.1,1.16,1.22q0,6.3,0,12.61c0,.71,0,.75-.74.75-2.54,0-5.08-.05-7.62,0a18.13,18.13,0,0,0-3.68.42,5,5,0,0,0-4,4.43,18.4,18.4,0,0,0-.22,2.68c0,3.16,0,6.32,0,9.48,0,.56.17.71.72.71,4.71,0,9.43,0,14.14,0,.88,0,.88,0,.76.91l-1.83,14.23c-.11.9-.11.92-1,.92h-11.9c-.84,0-.84,0-.84.83v38.87c0,.2,0,.4,0,.6,0,.39-.15.49-.52.49q-7.85,0-15.68,0c-.57,0-.5-.34-.5-.68V390.43Z" transform="translate(-3.02 -28.15)" fill="#15646a" opacity="0.24" style="isolation:isolate"/></svg>